<svg width="1440" height="866" viewBox="0 0 1440 866" fill="none" xmlns="http://www.w3.org/2000/svg">
<path d="M1057.22 105.527L1446.26 252.098C1457.36 277.317 1481.31 338.998 1488.3 383.961C1512.31 527.09 1555.73 815.188 1537.25 822.549L781.465 830.963L632.221 832.625L-114 840.933C-112.622 748.291 -107.286 556.842 -96.9715 532.18C-86.6566 507.517 -90.6782 516.365 -93.9783 523.872C-79.8846 433.806 -43.2033 248.55 -9.22842 228.057C126.246 187.52 400.153 100.523 424.451 74.6371L518.952 23.5477C531.628 157.361 558.998 430.744 567.073 453.771L632.221 832.625L781.465 830.963L877.723 340.278C892.552 243.624 922.09 45.611 921.604 26.7979C963.495 59.1792 1029.51 105.114 1057.22 105.527Z" fill="black"/>
<path d="M632.221 832.625L-114 840.933C-112.622 748.291 -107.286 556.842 -96.9715 532.179C-86.6566 507.517 -90.6782 516.365 -93.9783 523.872C-79.8846 433.806 -43.2033 248.55 -9.22843 228.057C126.246 187.52 400.153 100.523 424.451 74.6371L518.952 23.5477C531.628 157.361 558.998 430.744 567.073 453.771L632.221 832.625ZM632.221 832.625L781.465 830.963M781.465 830.963L1537.25 822.549C1555.73 815.188 1512.31 527.09 1488.3 383.961C1481.31 338.998 1457.36 277.317 1446.26 252.098L1057.22 105.527C1029.51 105.114 963.495 59.1792 921.604 26.7979C922.09 45.611 892.552 243.624 877.723 340.278L781.465 830.963Z" stroke="black"/>
<path d="M538.235 13.0968L520.897 21.1904C517.243 41.0356 532.851 202.521 560.379 389.245C583.024 542.85 615.883 714.606 634.179 829.396L780.496 831.573L830.286 571.03L887.285 275.994L919.719 24.7378L901.691 14.9249C852.214 100.09 758.155 168.685 717.31 192.336C677.697 180.294 581.421 67.8255 538.235 13.0968Z" fill="white"/>
<path d="M716.126 207.829L665.935 238.102L645.86 255.699C647.593 308.221 672.076 351.933 684.102 367.225C674.52 389.75 653.943 439.792 648.29 459.752C642.636 479.711 632.703 714.441 628.444 829.31L785.281 831.644C781.601 714.667 774.283 477.852 774.453 466.401C774.624 454.95 752.566 394.491 741.516 365.693C755.986 357.556 771.997 310.071 773.962 306.521C775.535 303.682 784.666 272.877 789.035 257.83C786.825 252.07 739.508 222.096 716.126 207.829Z" fill="black"/>
</svg>
