<svg width="595" height="554" viewBox="0 0 595 554" fill="none" xmlns="http://www.w3.org/2000/svg">
<path d="M432.799 303.114L591.88 353.494C596.547 362.46 606.66 384.406 609.772 400.459C620.403 451.551 639.799 554.417 632.331 557.15L325.059 564.185L264.382 565.574L-39 572.52C-39 539.36 -37.9887 470.82 -33.9436 461.94C-29.8985 453.059 -31.4803 456.247 -32.7768 458.951C-27.5907 426.645 -13.7959 360.155 -0.104809 352.64C54.7374 337.412 165.589 304.822 175.312 295.429L213.43 276.643C219.394 324.462 232.177 422.148 235.6 430.345L264.382 565.574L325.059 564.185L361.232 388.077C366.677 353.41 377.49 282.392 377.179 275.663C394.408 287.027 421.529 303.114 432.799 303.114Z" fill="black"/>
<path d="M264.382 565.574L-39 572.52C-39 539.36 -37.9887 470.82 -33.9436 461.94C-29.8985 453.059 -31.4803 456.247 -32.7768 458.951C-27.5907 426.645 -13.7959 360.155 -0.10481 352.64C54.7374 337.412 165.589 304.822 175.312 295.429L213.43 276.643C219.394 324.462 232.177 422.148 235.6 430.345L264.382 565.574ZM264.382 565.574L325.059 564.185M325.059 564.185L632.331 557.15C639.799 554.417 620.403 451.551 609.772 400.459C606.66 384.406 596.547 362.46 591.88 353.494L432.799 303.114C421.529 303.114 394.408 287.027 377.179 275.663C377.49 282.392 366.677 353.41 361.232 388.077L325.059 564.185Z" stroke="black"/>
<path d="M221.207 272.801L214.206 275.789C212.841 282.911 220.164 340.616 232.487 407.29C242.625 462.138 257.025 523.427 265.159 564.408H324.669L343.338 470.906L364.731 365.022L376.399 274.935L369.009 271.52C349.406 302.26 311.574 327.308 295.108 335.989C278.928 331.891 239.099 292.156 221.207 272.801Z" fill="white"/>
<path d="M294.721 341.54L274.495 352.64L266.439 359.045C267.461 377.83 277.681 393.343 282.663 398.751C278.903 406.863 270.839 424.88 268.661 432.053C266.483 439.226 263.864 523.278 262.827 564.408H326.615C324.411 522.567 320.003 437.86 320.003 433.761C320.003 429.662 310.668 408.144 306 397.897C311.835 394.909 318.058 377.83 318.836 376.55C319.458 375.525 322.985 364.453 324.67 359.045C323.737 356.995 304.315 346.521 294.721 341.54Z" fill="black"/>
<path d="M254.132 180.807C254.132 180.807 212.79 163.694 235.783 96.1336C235.783 96.1336 134.489 207.736 278.081 262.767C278.081 262.767 367.491 284.113 388.837 184.932C388.837 184.932 399.534 113.093 358.819 72.9301L357.641 125.467C357.641 125.467 287.271 70.2872 346.038 0.0474242C346.038 0.0474242 261.11 -1.47667 257.634 89.6559C257.634 89.6559 259.241 150.763 263.153 156.652C267.064 162.542 254.132 180.807 254.132 180.807Z" fill="#D61A17"/>
</svg>
