<svg width="1669" height="866" viewBox="0 0 1669 866" fill="none" xmlns="http://www.w3.org/2000/svg">
<path d="M1172.22 105.526L1561.26 252.097C1572.36 277.317 1596.31 338.998 1603.3 383.961C1627.31 527.09 1670.73 815.188 1652.25 822.549L896.465 830.963L747.221 832.625L1.00004 840.933C2.37832 748.291 7.71361 556.842 18.0285 532.179C28.3434 507.517 24.3218 516.365 21.0217 523.872C35.1154 433.806 71.7967 248.55 105.772 228.057C241.246 187.52 515.153 100.523 539.451 74.6369L633.952 23.5475C646.628 157.361 673.998 430.744 682.073 453.771L747.221 832.625L896.465 830.963L992.723 340.278C1007.55 243.623 1037.09 45.6108 1036.6 26.7977C1078.5 59.179 1144.51 105.114 1172.22 105.526Z" fill="black"/>
<path d="M747.221 832.625L1.00004 840.933C2.37832 748.291 7.71361 556.842 18.0285 532.179C28.3434 507.517 24.3218 516.365 21.0217 523.872C35.1154 433.806 71.7967 248.55 105.772 228.057C241.246 187.52 515.153 100.523 539.451 74.6369L633.952 23.5475C646.628 157.361 673.998 430.744 682.073 453.771L747.221 832.625ZM747.221 832.625L896.465 830.963M896.465 830.963L1652.25 822.549C1670.73 815.188 1627.31 527.09 1603.3 383.961C1596.31 338.998 1572.36 277.317 1561.26 252.097L1172.22 105.526C1144.51 105.114 1078.5 59.179 1036.6 26.7977C1037.09 45.6108 1007.55 243.623 992.723 340.278L896.465 830.963Z" stroke="black"/>
<path d="M653.235 13.0967L635.897 21.1903C632.243 41.0355 647.851 202.521 675.379 389.245C698.024 542.85 730.883 714.605 749.179 829.396L895.496 831.572L945.286 571.029L1002.28 275.994L1034.72 24.7376L1016.69 14.9248C967.214 100.09 873.155 168.685 832.31 192.336C792.697 180.293 696.421 67.8254 653.235 13.0967Z" fill="white"/>
<path d="M831.126 207.829L780.936 238.102L760.86 255.699C762.593 308.221 787.077 351.933 799.102 367.225C789.52 389.75 768.944 439.792 763.29 459.752C757.636 479.711 746.76 718.13 742.5 833L900.281 831.644C896.601 714.667 889.283 477.852 889.454 466.401C889.624 454.95 867.567 394.491 856.517 365.693C870.986 357.556 886.997 310.071 888.963 306.521C890.535 303.682 899.666 272.877 904.035 257.83C901.825 252.07 854.508 222.096 831.126 207.829Z" fill="black"/>
</svg>
