<svg width="1152" height="632" viewBox="0 0 1152 632" fill="none" xmlns="http://www.w3.org/2000/svg">
<path d="M309 90.7856L448.517 631.291H730.008L771.765 225.421C776.35 169.568 785.422 51.7709 785.029 27.399C784.636 3.02716 776.023 17.2441 771.765 27.399C761.547 82.0392 644.038 148.767 586.561 175.301C457.851 140.414 368.933 40.666 357.635 19.0458C348.595 1.74963 344.043 8.56328 342.897 14.1321V40.666L338.475 46.0711L309 90.7856Z" fill="#E0DFDF"/>
<path d="M803.535 77.4258C796.775 47.0934 786.468 39.8386 782.16 40.0027C782.16 75.0622 743.387 443.942 724 624H1152V266.019L1143.05 254.693C1133.11 241.89 963.103 188.218 937.751 177.877C912.4 167.537 860.358 156.427 857.222 153.257C854 150 849.782 144.978 844.5 138.5C831.436 122.478 811.986 91.7057 803.535 77.4258Z" fill="#010101"/>
<path d="M238.26 136.562C233.544 142.852 77.455 193.561 0 218.129V624H448.027C442.296 593.207 430.833 528.773 430.833 517.373C430.833 503.123 360.092 174.398 352.723 156.708C346.828 142.557 342.734 67.9344 341.424 32.3921C333.073 30.918 304.089 80.0549 301.141 86.4426C298.194 92.8304 244.155 128.7 238.26 136.562Z" fill="#010101"/>
<path d="M401.052 65.8238C437.188 106.783 538.854 150.18 585.17 166.759H587.134C588.116 167.734 589.982 169.099 589.589 166.759C589.098 163.833 623.958 141.891 648.016 132.139C667.262 124.337 715.608 89.8791 737.375 73.6255C746.867 64.8485 767.325 41.5408 773.216 18.5257C779.108 -4.48946 783.527 12.8369 785 24.377L767.5 215C755.225 239.218 728.537 297.438 704.97 336.447C675.511 385.208 580.751 369.604 540.981 364.728C501.212 359.852 471.262 310.116 467.334 308.165C463.406 306.215 362.755 171.147 355.39 158.469C348.025 145.792 343.607 55.584 342.134 24.377C340.955 -0.588575 347.862 -1.62881 351.462 0.971774C358.336 21.4513 372.575 38.5177 401.052 65.8238Z" fill="white"/>
<path d="M557.578 311.981C552.076 337.532 561.181 346.868 566.421 348.342V361.118C566.421 367.506 557.578 375.368 549.718 379.298C543.43 382.443 540.548 389.453 539.893 392.565L534.489 451.53L520.242 623.017H673.515C670.076 576.501 663.199 482.781 663.199 480.029C663.199 476.589 653.373 384.212 645.022 379.298C636.671 374.385 616.529 353.256 628.319 344.903C637.751 338.22 634.542 320.17 631.758 311.981L599.826 180.294C591.966 161.622 578.211 178.329 579.193 187.665C580.176 197.001 564.456 280.042 557.578 311.981Z" fill="#010101"/>
</svg>
