<svg width="341" height="493" viewBox="0 0 341 493" fill="none" xmlns="http://www.w3.org/2000/svg">
<path d="M95.7019 336.61C95.7019 336.61 21.0786 304.646 62.4353 178.816C62.4353 178.816 -120.111 386.555 139.069 489.36C139.069 489.36 300.426 529.302 338.751 344.554C338.751 344.554 357.913 210.728 284.377 135.82L282.351 233.701C282.351 233.701 155.282 130.758 261.178 0.00350356C261.178 0.00350356 107.944 -2.999 101.848 166.788C101.848 166.788 104.863 280.643 111.932 291.624C119 302.605 95.7019 336.61 95.7019 336.61Z" fill="#D61A17"/>
<path d="M149.999 410.69C149.999 410.69 112.679 393.962 133.358 327.873C133.358 327.873 42.0927 436.906 171.682 490.866C171.682 490.866 252.419 511.832 271.515 414.859C271.515 414.859 281.105 344.618 244.296 305.294L243.274 356.662C243.274 356.662 179.822 302.703 232.696 234.04C232.696 234.04 156.046 232.461 153.014 321.542C153.014 321.542 154.53 381.3 158.073 387.065C161.615 392.83 149.999 410.69 149.999 410.69Z" fill="#AE2020"/>
</svg>
