<svg width="431" height="835" viewBox="0 0 431 835" fill="none" xmlns="http://www.w3.org/2000/svg">
<path d="M0.552944 173.047L123.941 64.8906M315.239 67.7367C312.286 60.0411 249.065 19.9924 217.824 0.92998L150.764 41.3785L123.941 64.8906M315.239 67.7367L429.854 181.028M315.239 67.7367C309.401 87.8416 297.201 129 295.1 132.794C292.473 137.538 271.081 200.983 251.749 211.854C266.513 250.331 295.984 331.112 295.756 346.411C295.528 361.711 305.305 678.123 310.222 834.416L100.671 831.298C106.362 677.82 119.634 364.195 127.188 337.527C134.741 310.859 162.234 243.998 175.036 213.901C158.969 193.47 126.256 135.065 123.941 64.8906" stroke="black"/>
</svg>
