<svg width="1920" height="1157" viewBox="0 0 1920 1157" fill="none" xmlns="http://www.w3.org/2000/svg">
<path d="M1412.56 141.242L1932.36 337.078C1947.2 370.774 1979.2 453.186 1988.53 513.262C2020.62 704.498 2078.62 1089.43 2053.94 1099.26L1044.12 1110.51L844.717 1112.73L-152.316 1123.83C-150.475 1000.05 -143.346 744.25 -129.564 711.298C-115.782 678.346 -121.156 690.169 -125.565 700.199C-106.734 579.86 -57.7239 332.338 -12.3297 304.957C168.679 250.794 534.649 134.558 567.114 99.9707L693.377 31.7096C710.314 210.499 746.885 575.769 757.674 606.536L844.717 1112.73L1044.12 1110.51L1172.74 454.897C1192.55 325.755 1232.01 61.1886 1231.37 36.0522C1287.34 79.3173 1375.54 140.692 1412.56 141.242Z" fill="black"/>
<path d="M844.717 1112.73L-152.316 1123.83C-150.475 1000.05 -143.346 744.25 -129.564 711.298C-115.782 678.346 -121.156 690.169 -125.565 700.199C-106.734 579.86 -57.7239 332.338 -12.3297 304.957C168.679 250.794 534.649 134.558 567.114 99.9707L693.377 31.7096C710.314 210.499 746.885 575.769 757.674 606.536L844.717 1112.73ZM844.717 1112.73L1044.12 1110.51M1044.12 1110.51L2053.94 1099.26C2078.62 1089.43 2020.62 704.498 1988.53 513.262C1979.2 453.186 1947.2 370.774 1932.36 337.078L1412.56 141.242C1375.54 140.692 1287.34 79.3173 1231.37 36.0522C1232.01 61.1886 1192.55 325.755 1172.74 454.897L1044.12 1110.51Z" stroke="black" stroke-width="1.33611"/>
<path d="M719.142 17.7461L695.977 28.56C691.094 55.0754 711.949 270.838 748.729 520.322C778.985 725.555 822.889 955.04 847.334 1108.41L1042.83 1111.32L1109.35 763.206L1185.51 369.006L1228.85 33.2996L1204.76 20.1886C1138.65 133.979 1012.98 225.629 958.406 257.23C905.479 241.139 776.844 90.8696 719.142 17.7461Z" fill="white"/>
</svg>
