<svg width="2177" height="1097" viewBox="0 0 2177 1097" fill="none" xmlns="http://www.w3.org/2000/svg">
<path d="M1552.59 115.173L2077.99 295.458C2093.82 328.698 2128.26 410.121 2139.37 469.894C2177.14 660.09 2184.38 1053.94 2160 1064.5L1206.5 1064.5L1008.5 1064.5L16.1245 1065.56C14.283 941.778 15.313 764.199 28.1084 730.852C40.9039 697.505 35.8847 709.482 31.7757 719.639C47.0183 598.793 88.6436 349.922 133.203 321.203C312.521 261.68 674.87 134.607 706.292 99.0699L830.468 27.0828C852.716 205.289 900.137 569.31 911.836 599.742L1008.5 1064.5L1206.5 1064.5L1322.21 435.823C1338.17 306.149 1369.75 40.5252 1368.35 15.4191C1425.58 57 1515.57 115.723 1552.59 115.173Z" fill="black"/>
<path d="M1008.5 1064.5L16.1245 1065.56C14.283 941.778 15.313 764.199 28.1084 730.852C40.9039 697.505 35.8847 709.482 31.7757 719.639C47.0183 598.793 88.6436 349.922 133.203 321.203C312.521 261.68 674.87 134.607 706.292 99.0699L830.468 27.0828C852.716 205.289 900.137 569.31 911.836 599.742L1008.5 1064.5ZM1008.5 1064.5L1206.5 1064.5M1206.5 1064.5L2160 1064.5C2184.38 1053.94 2177.14 660.09 2139.37 469.894C2128.26 410.121 2093.82 328.698 2077.99 295.458L1552.59 115.173C1515.57 115.723 1425.58 57 1368.35 15.4191C1369.75 40.5252 1338.17 306.149 1322.21 435.823L1206.5 1064.5Z" stroke="black" stroke-width="1.33611"/>
<path d="M856.038 12.5192L833.205 24.0175C829.113 50.6664 856.377 265.713 900.563 513.993C936.911 718.235 976.404 883.205 1005.4 1035.78L1214.85 1032.67L1268.25 746.041L1332.65 349.75L1365.98 12.9029L1341.51 0.514263C1278.82 116.221 1155.93 211.569 1102.32 244.779C1048.94 230.27 915.89 83.8939 856.038 12.5192Z" fill="white"/>
<path d="M1107.12 265L1040.83 308.07L1014.42 332.917C1017.77 405.804 1051.27 465.991 1067.6 486.974C1055.28 518.448 1028.85 588.353 1021.71 616.183C1014.57 644.013 1005.4 906.422 1002 1066L1214 1066C1206.78 903.661 1189.99 638.712 1189.99 622.809C1189.99 606.906 1159.39 523.418 1144.09 483.661C1163.22 472.065 1183.62 405.804 1186.17 400.835C1188.21 396.859 1199.76 353.9 1205.29 332.917C1202.23 324.966 1138.57 284.326 1107.12 265Z" fill="black"/>
</svg>
