<svg width="440" height="344" viewBox="0 0 440 344" fill="none" xmlns="http://www.w3.org/2000/svg">
<path d="M86.9095 20.8305C7.47844 -34.8316 15.228 34.37 13.2907 73.4839C11.8155 103.267 37.1345 109.063 51.8289 108.256C71.8106 108.393 77.0838 176.397 77.2227 210.383V228.435C75.2854 239.467 69.8608 259.726 63.6613 252.505C57.4618 245.284 33.9554 247.491 22.9772 249.497C-20.4193 280.788 7.47844 323.713 26.8519 341.264C93.4965 356.909 114.032 301.648 115.97 272.062C116.615 249.497 118.294 187.516 119.844 120.12C121.394 52.7234 98.5336 25.8451 86.9095 20.8305Z" fill="#010101"/>
<path d="M147.742 155.59H186.489V194.704C170.99 194.202 139.218 193.5 136.118 194.704C132.243 196.208 83.8095 212.756 70.2481 214.261C56.6867 215.765 47 185.678 47 164.616C47 147.767 94.7878 140.546 118.682 139.042V133.024C114.807 135.531 109.77 138.741 120.619 131.52C131.468 124.299 143.221 144.558 147.742 155.59Z" fill="#DFC1A8"/>
<path d="M184 146L220.594 150.86L222.747 207.564L184 209.184V146Z" fill="#EFEFEF"/>
<path d="M219.085 214.896L500 225.427V156.225L219.085 142.686V214.896Z" fill="#010101"/>
<ellipse cx="194.749" cy="201.513" rx="7.74937" ry="4.51315" fill="#E09832"/>
<path d="M109.29 246.113C130.635 240.192 174.776 234.602 180.585 259.613C190.599 273.026 204.954 299.436 182.255 297.77C153.883 295.688 169.91 268.952 175.499 262.5C177.999 259.613 228.499 225 251.966 248.177C260.999 258 279.999 284 247.756 286.592C233.999 287.698 226.126 266.263 259.546 232.886C288 206 309.499 289 365.689 234.888C378.867 222.197 456.324 232.582 429.404 263.68M429.404 263.68C402.484 294.777 404.314 309.657 431.002 300.178C452.353 292.594 438.833 272.686 429.404 263.68Z" stroke="black" stroke-width="5"/>
</svg>
