<svg width="520" height="500" viewBox="0 0 520 500" fill="none" xmlns="http://www.w3.org/2000/svg">
<path d="M404.912 5.63935C397.696 -20.5602 215.507 50.8648 125.315 89.8522C125.315 106.071 201.477 341.971 239.559 457.894L247.075 464.132C318.227 440.219 467.145 389.9 493.601 379.919C520.058 369.938 521.661 360.165 519.156 356.526C484.081 250.48 412.127 31.8389 404.912 5.63935Z" fill="#010101"/>
<path d="M156.882 130.4C149.667 111.686 159.889 108.047 165.901 108.567L361.319 39.9489L391.383 33.7109L490.595 347.17C413.931 373.681 259.1 426.392 253.088 425.145C245.572 423.585 165.901 153.792 156.882 130.4Z" fill="#EFEFEF" stroke="#EFEFEF"/>
<path d="M246 447C233.142 477.001 176.424 478.687 147.863 475.048C146.861 458.934 145.458 427.328 147.863 429.823C150.268 432.318 186.947 424.625 204.985 420.466C202.58 414.228 205.987 382.518 207.992 367.443L215.508 378.36C220.518 369.003 230.84 349.353 232.043 345.61C233.245 341.867 259.602 339.892 272.63 339.372C284.655 349.353 259.602 369.522 245.572 378.36C260.003 434.501 249 440 246 447Z" fill="#DFC1A8"/>
<path d="M146.36 500C131.929 483.781 28.107 487.004 -22 490.643V425.144L146.36 418.906V500Z" fill="#010101"/>
<path d="M212.501 174.065L295.178 142.875H299.687H311.713L316.222 133.518H337.267L362.822 121.042" stroke="black" stroke-width="1.5"/>
<path d="M221.52 189.66L275.635 167.827H286.158L290.667 156.91H311.712L347.789 142.875L368.834 138.196" stroke="black" stroke-width="1.5"/>
<path d="M226.029 209.934L325.241 174.065L356.809 164.708L374.847 153.792" stroke="black" stroke-width="1.5"/>
<path d="M229.036 227.088L379.357 175.625" stroke="black" stroke-width="1.5"/>
<path d="M238.056 253.6L316.223 225.529L341.777 214.612L368.835 205.255L376.351 200.577L389.88 192.779" stroke="black" stroke-width="1.5"/>
<path d="M182.437 107.007H165.901L161.392 89.8523L356.809 19.6749L362.822 38.3889L353.803 43.0674M182.437 107.007L186.946 127.28L259.1 105.447C269.122 110.646 289.165 115.428 289.165 92.9713L361.319 71.1384L353.803 43.0674M182.437 107.007L353.803 43.0674" stroke="#E3BD87" stroke-width="3"/>
</svg>
