<svg width="540" height="354" viewBox="0 0 540 354" fill="none" xmlns="http://www.w3.org/2000/svg">
<path d="M378.509 195.284L378.238 195.614L122.95 5.94258L9.97915 144.409L263.698 335.311L378.238 195.614L380.161 197.043L378.509 195.284Z" fill="#DAD6D6"/>
<path d="M188.817 172.869L378.415 196.944L124.602 7.70147L188.817 172.869Z" fill="#FBFBFB"/>
<path d="M282.324 313.048L578.038 309.974L591.497 261.5C569.958 260.278 421.119 253.319 401.409 254.866C381.699 256.412 372.429 251.002 370.257 248.104C366.326 218.573 336.963 217.352 322.772 220.432C313.396 221.011 292.689 225.72 284.876 239.931C275.108 257.694 299.745 255.761 310.788 246.396C319.622 238.904 329.667 243.026 333.585 246.024L282.324 313.048Z" fill="#DFC1A8"/>
</svg>
