<svg width="164" height="164" viewBox="0 0 164 164" fill="none" xmlns="http://www.w3.org/2000/svg">
<rect width="163.464" height="164" rx="48.2353" fill="white"/>
<ellipse cx="80.928" cy="83.8758" rx="72.8889" ry="68.3333" fill="#30AEEB"/>
<path d="M46.8843 95.9679C51.6006 97.2542 57.9605 94.896 60.5509 93.5561C70.466 86.5888 91.2071 72.1182 94.8516 69.9744C98.496 67.8306 97.0847 70.8677 95.9235 72.6542C89.7601 78.4603 76.2542 91.2515 71.5379 95.9679C66.8215 100.684 68.5008 103.828 69.93 104.811C77.2546 110.081 93.5117 121.586 99.9431 125.445C106.374 129.304 109.947 123.837 110.93 120.621C113.878 101.417 119.988 61.4529 120.845 55.2359C121.703 49.0189 114.771 49.4298 111.198 50.4123C85.9191 61.2206 34.5039 83.2123 31.0738 84.713C27.6437 86.2136 29.1087 88.554 30.2699 89.5365C33.8429 91.1444 42.1679 94.6816 46.8843 95.9679Z" fill="white"/>
</svg>
