<svg width="254" height="64" viewBox="0 0 254 64" fill="none" xmlns="http://www.w3.org/2000/svg">
<rect width="254" height="64" rx="30" fill="#FBFBFB"/>
<ellipse cx="38.3395" cy="33.3333" rx="16.7736" ry="17.3333" fill="#B1E30E"/>
<path d="M31.3741 31.6789C32.4015 31.6789 35.227 35.0203 36.5113 36.6911L37.1531 37.4071L37.7952 36.6911L44.2168 29.5308C45.5011 28.0988 46.1432 26.6667 48.7119 26.6667C50.7668 26.6667 50.4243 29.5308 49.9962 30.9629C46.1432 35.4977 38.3089 44.7105 37.7952 45.2833C37.1531 45.9993 31.3741 38.8391 29.4476 36.6911C27.5211 34.543 30.0898 31.6789 31.3741 31.6789Z" fill="white"/>
<path d="M83.8291 21.2668H94.3906C95.2695 21.2668 96.041 21.3499 96.7051 21.5159C97.3789 21.6819 97.96 21.9065 98.4482 22.1897C98.9365 22.4729 99.3467 22.8 99.6787 23.1711C100.011 23.5422 100.274 23.9329 100.47 24.343C100.665 24.7434 100.802 25.1536 100.88 25.5735C100.968 25.9934 101.012 26.3938 101.012 26.7747C101.012 27.3215 100.963 27.8147 100.865 28.2542C100.768 28.6838 100.611 29.0793 100.396 29.4407C100.191 29.7922 99.918 30.1145 99.5762 30.4075C99.2441 30.6907 98.8438 30.9495 98.375 31.1838C99.0977 31.4573 99.6787 31.7942 100.118 32.1946C100.558 32.595 100.895 33.0295 101.129 33.4983C101.363 33.9573 101.52 34.4358 101.598 34.9338C101.676 35.4221 101.715 35.8958 101.715 36.3547C101.715 37.3997 101.524 38.3225 101.144 39.1233C100.763 39.9241 100.226 40.5979 99.5322 41.1448C98.8389 41.6819 97.9941 42.092 96.998 42.3752C96.0117 42.6584 94.9131 42.8 93.7021 42.8H83.8291V21.2668ZM88.1504 39.0793H93.7607C94.2588 39.0793 94.7178 39.0208 95.1377 38.9036C95.5576 38.7864 95.9189 38.6106 96.2217 38.3762C96.5342 38.1321 96.7734 37.8293 96.9395 37.468C97.1152 37.0969 97.2031 36.6624 97.2031 36.1643C97.2031 35.5393 97.1006 35.0413 96.8955 34.6702C96.6904 34.2893 96.417 33.9963 96.0752 33.7913C95.7432 33.5862 95.3623 33.4543 94.9326 33.3958C94.5127 33.3274 94.083 33.2932 93.6436 33.2932H88.1504V39.0793ZM88.1504 29.7483H93.7021C94.0928 29.7483 94.4688 29.7043 94.8301 29.6165C95.1914 29.5286 95.5088 29.387 95.7822 29.1917C96.0654 28.9866 96.29 28.7278 96.4561 28.4153C96.6221 28.1028 96.7051 27.7268 96.7051 27.2874C96.7051 26.8284 96.627 26.4524 96.4707 26.1594C96.3242 25.8567 96.1191 25.6174 95.8555 25.4417C95.5918 25.2659 95.2842 25.1438 94.9326 25.0754C94.5811 25.0071 94.21 24.9729 93.8193 24.9729H88.1504V29.7483ZM117.931 39.6506C117.931 40.1292 117.955 40.5247 118.004 40.8372C118.062 41.1399 118.136 41.384 118.224 41.5696C118.312 41.7454 118.409 41.8772 118.517 41.9651C118.634 42.0432 118.756 42.1018 118.883 42.1409V42.8H114.298C114.22 42.6145 114.132 42.3704 114.034 42.0676C113.946 41.7551 113.902 41.3792 113.902 40.9397C113.58 41.2717 113.263 41.5793 112.95 41.8625C112.647 42.1458 112.306 42.3948 111.925 42.6096C111.544 42.8147 111.104 42.9758 110.606 43.093C110.108 43.22 109.508 43.2834 108.805 43.2834C108.092 43.2834 107.433 43.176 106.827 42.9612C106.231 42.7561 105.714 42.4485 105.274 42.0383C104.835 41.6282 104.493 41.1155 104.249 40.5002C104.005 39.885 103.883 39.1721 103.883 38.3616C103.883 37.7073 103.985 37.1018 104.19 36.5452C104.396 35.9788 104.684 35.4856 105.055 35.0657C105.436 34.636 105.895 34.2844 106.432 34.011C106.979 33.7278 107.589 33.5374 108.263 33.4397L112.32 32.8391C112.467 32.8196 112.623 32.7903 112.789 32.7512C112.965 32.7122 113.126 32.6487 113.272 32.5608C113.419 32.4631 113.541 32.3362 113.639 32.1799C113.736 32.0139 113.785 31.7942 113.785 31.5208C113.785 31.2571 113.741 31.0178 113.653 30.803C113.575 30.5784 113.438 30.3879 113.243 30.2317C113.048 30.0657 112.784 29.9387 112.452 29.8508C112.13 29.7629 111.725 29.719 111.236 29.719C110.68 29.719 110.23 29.7776 109.889 29.8948C109.557 30.0022 109.293 30.1584 109.098 30.3635C108.902 30.5588 108.761 30.7932 108.673 31.0667C108.585 31.3303 108.521 31.6135 108.482 31.9163H104.337C104.337 31.7209 104.366 31.4524 104.425 31.1106C104.493 30.759 104.61 30.3782 104.776 29.968C104.952 29.5579 105.191 29.1428 105.494 28.7229C105.807 28.303 106.212 27.9221 106.71 27.5803C107.218 27.2288 107.833 26.9407 108.556 26.7161C109.278 26.4915 110.143 26.3743 111.148 26.3645C112.574 26.3645 113.727 26.511 114.605 26.804C115.494 27.0872 116.183 27.4631 116.671 27.9319C117.169 28.3909 117.501 28.9084 117.667 29.4846C117.843 30.051 117.931 30.6174 117.931 31.1838V39.6506ZM113.785 35.0071C113.531 35.1438 113.277 35.2708 113.023 35.3879C112.77 35.4954 112.433 35.5881 112.013 35.6663L110.914 35.8713C110.436 35.9592 110.016 36.0618 109.654 36.179C109.293 36.2961 108.99 36.4524 108.746 36.6477C108.512 36.8333 108.331 37.0627 108.204 37.3362C108.087 37.6096 108.028 37.9514 108.028 38.3616C108.028 38.7034 108.082 39.0012 108.189 39.2551C108.297 39.4993 108.443 39.7043 108.629 39.8704C108.824 40.0266 109.049 40.1438 109.303 40.2219C109.557 40.3 109.83 40.3391 110.123 40.3391C110.279 40.3391 110.479 40.3245 110.724 40.2952C110.968 40.2561 111.227 40.1877 111.5 40.0901C111.773 39.9924 112.047 39.8606 112.32 39.6946C112.594 39.5188 112.838 39.2942 113.053 39.0208C113.268 38.7473 113.443 38.4153 113.58 38.0247C113.717 37.6243 113.785 37.1555 113.785 36.6184V35.0071ZM134.352 33.176H135.143L139.522 26.8333H144.254L138.893 34.2161L144.532 42.8H139.522L135.143 36.0178H134.352V42.8H130.221V36.0178H129.312L124.815 42.8H119.981L125.65 34.2161L120.348 26.8333H125.094L129.444 33.176H130.221V26.8333H134.352V33.176ZM146.744 26.8333H150.89V32.6047H156.983V26.8333H161.114V42.8H156.983V35.9592H150.89V42.8H146.744V26.8333ZM164.132 34.8167C164.132 33.5862 164.317 32.4534 164.688 31.4182C165.069 30.3831 165.611 29.4944 166.314 28.7522C167.027 28.0002 167.887 27.4143 168.893 26.9944C169.898 26.5745 171.031 26.3645 172.291 26.3645C173.57 26.3645 174.713 26.5745 175.719 26.9944C176.734 27.4143 177.589 28.0002 178.282 28.7522C178.985 29.4944 179.522 30.3831 179.894 31.4182C180.265 32.4534 180.45 33.5862 180.45 34.8167C180.45 36.0471 180.265 37.1799 179.894 38.2151C179.522 39.2502 178.985 40.1438 178.282 40.8958C177.589 41.6477 176.734 42.2336 175.719 42.6536C174.713 43.0735 173.57 43.2834 172.291 43.2834C171.031 43.2834 169.898 43.0735 168.893 42.6536C167.887 42.2336 167.027 41.6477 166.314 40.8958C165.611 40.1438 165.069 39.2502 164.688 38.2151C164.317 37.1799 164.132 36.0471 164.132 34.8167ZM168.453 34.8167C168.453 35.4221 168.517 36.0227 168.644 36.6184C168.78 37.2043 169 37.7317 169.303 38.2004C169.605 38.6594 170.001 39.0305 170.489 39.3137C170.978 39.5969 171.578 39.7385 172.291 39.7385C173.033 39.7385 173.648 39.6018 174.137 39.3284C174.635 39.0452 175.03 38.679 175.323 38.2297C175.616 37.7708 175.821 37.2483 175.938 36.6624C176.065 36.0667 176.129 35.4514 176.129 34.8167C176.129 34.1917 176.065 33.5813 175.938 32.9856C175.821 32.3899 175.616 31.8674 175.323 31.4182C175.03 30.9592 174.635 30.593 174.137 30.3196C173.648 30.0364 173.033 29.8948 172.291 29.8948C171.578 29.8948 170.978 30.0364 170.489 30.3196C170.001 30.6028 169.605 30.9788 169.303 31.4475C169 31.9065 168.78 32.4338 168.644 33.0295C168.517 33.6155 168.453 34.2112 168.453 34.8167Z" fill="#4D4E50"/>
</svg>
