<svg width="228" height="90" viewBox="0 0 228 90" fill="none" xmlns="http://www.w3.org/2000/svg">
<path fill-rule="evenodd" clip-rule="evenodd" d="M25.4228 0C11.3822 0 0 11.3822 0 25.4228C0 39.4635 11.3822 50.8457 25.4229 50.8457H123.623L134.873 66.3204L146.573 50.8457H177.558C191.599 50.8457 202.981 39.4635 202.981 25.4228C202.981 11.3822 191.599 0 177.558 0H25.4228Z" fill="#0FA821"/>
<path d="M20.7757 18.2408H34.8123V35.551H31.1972V21.22H24.4026V35.551H20.7757V18.2408ZM38.0153 22.7155H41.1947V24.5526H41.2418C41.4695 24.1679 41.7089 23.8382 41.9601 23.5634C42.2114 23.2808 42.49 23.0492 42.7962 22.8686C43.1024 22.6881 43.44 22.5546 43.8089 22.4683C44.1857 22.3819 44.6097 22.3387 45.0807 22.3387C45.4732 22.3387 45.8775 22.3858 46.2936 22.48C46.7097 22.5742 47.114 22.7273 47.5065 22.9393C47.9069 23.1434 48.2837 23.4142 48.6369 23.7518C48.9902 24.0815 49.3003 24.4897 49.5672 24.9765C49.8341 25.4632 50.0461 26.0324 50.2031 26.6839C50.3601 27.3277 50.4386 28.0656 50.4386 28.8978C50.4386 29.934 50.3248 30.8839 50.0971 31.7475C49.8773 32.611 49.5397 33.3529 49.0844 33.9731C48.6369 34.5933 48.0678 35.0761 47.377 35.4215C46.694 35.7669 45.8893 35.9396 44.9629 35.9396C44.6411 35.9396 44.3153 35.9082 43.9856 35.8454C43.6558 35.7826 43.334 35.6766 43.02 35.5275C42.7059 35.3783 42.4076 35.1781 42.125 34.9269C41.8502 34.6679 41.6069 34.346 41.3949 33.9613H41.3478V40.5204H38.0153V22.7155ZM44.0915 25.3297C43.5577 25.3297 43.1063 25.4436 42.7373 25.6712C42.3762 25.8989 42.0818 26.1933 41.8542 26.5544C41.6343 26.9155 41.4734 27.3238 41.3714 27.7791C41.2693 28.2344 41.2183 28.6858 41.2183 29.1333C41.2183 29.3767 41.2301 29.6436 41.2536 29.934C41.285 30.2166 41.34 30.5071 41.4185 30.8054C41.497 31.0959 41.6029 31.3785 41.7364 31.6533C41.8777 31.928 42.0543 32.1714 42.2663 32.3834C42.4783 32.5953 42.7334 32.768 43.0317 32.9015C43.33 33.0271 43.6833 33.0899 44.0915 33.0899C44.4998 33.0899 44.853 33.0271 45.1513 32.9015C45.4497 32.768 45.7048 32.5953 45.9168 32.3834C46.1287 32.1714 46.3014 31.928 46.4349 31.6533C46.5762 31.3785 46.6861 31.0959 46.7646 30.8054C46.8431 30.5071 46.8941 30.2166 46.9177 29.934C46.9491 29.6436 46.9648 29.3767 46.9648 29.1333C46.9648 28.6858 46.9138 28.2344 46.8117 27.7791C46.7097 27.3238 46.5448 26.9155 46.3171 26.5544C46.0973 26.1933 45.8029 25.8989 45.434 25.6712C45.065 25.4436 44.6175 25.3297 44.0915 25.3297ZM52.8526 22.7155H56.1851V30.6288H56.2323L60.9072 22.7155H64.4046V35.551H61.0838V27.8144H61.0249L56.4913 35.551H52.8526V22.7155ZM71.0225 27.7555H73.5896C73.9664 27.7555 74.2804 27.7281 74.5316 27.6731C74.7829 27.6103 74.9791 27.5239 75.1204 27.414C75.2696 27.2963 75.3716 27.155 75.4266 26.9901C75.4894 26.8174 75.5208 26.6172 75.5208 26.3896C75.5208 26.2011 75.4894 26.0284 75.4266 25.8714C75.3716 25.7066 75.2735 25.5692 75.1322 25.4593C74.9909 25.3415 74.8025 25.2512 74.567 25.1884C74.3315 25.1178 74.0371 25.0825 73.6838 25.0825H71.0225V27.7555ZM67.69 22.7155H74.3315C74.9202 22.7155 75.4855 22.7666 76.0272 22.8686C76.5767 22.9707 77.0595 23.1512 77.4756 23.4103C77.8916 23.6615 78.2214 24.0069 78.4647 24.4466C78.7159 24.8783 78.8415 25.4279 78.8415 26.0952C78.8415 26.4798 78.7984 26.8135 78.712 27.0961C78.6335 27.3787 78.5236 27.6221 78.3823 27.8262C78.241 28.0224 78.0761 28.1912 77.8877 28.3325C77.7071 28.466 77.5187 28.5798 77.3225 28.674C77.9662 28.9017 78.4569 29.2667 78.7944 29.7692C79.132 30.2638 79.3008 30.8565 79.3008 31.5473C79.3008 32.1518 79.1948 32.7013 78.9828 33.1959C78.7787 33.6826 78.4843 34.1026 78.0997 34.4559C77.7228 34.8013 77.2597 35.0721 76.7101 35.2684C76.1685 35.4568 75.56 35.551 74.8849 35.551H67.69V22.7155ZM71.0225 33.1841H73.5896C74.0685 33.1841 74.4531 33.1331 74.7436 33.031C75.0419 32.929 75.2696 32.7994 75.4266 32.6424C75.5915 32.4854 75.6974 32.3127 75.7445 32.1243C75.7995 31.9359 75.827 31.7593 75.827 31.5944C75.827 31.2804 75.7838 31.0213 75.6974 30.8172C75.6189 30.6052 75.4894 30.4365 75.3088 30.3109C75.1361 30.1852 74.9045 30.0989 74.6141 30.0518C74.3315 30.0047 73.99 29.9811 73.5896 29.9811H71.0225V33.1841ZM84.3761 30.1695C84.3761 30.2873 84.3879 30.4443 84.4114 30.6406C84.435 30.8368 84.4821 31.0488 84.5527 31.2765C84.6234 31.5041 84.7254 31.7357 84.8589 31.9712C84.9924 32.1989 85.169 32.4069 85.3888 32.5953C85.6165 32.7837 85.8912 32.9368 86.2131 33.0546C86.5428 33.1723 86.9353 33.2312 87.3907 33.2312C87.6262 33.2312 87.8578 33.1998 88.0854 33.137C88.3209 33.0664 88.5368 32.9682 88.7331 32.8426C88.9294 32.7092 89.0981 32.5522 89.2395 32.3716C89.3886 32.1832 89.4946 31.9712 89.5574 31.7357H93.0077C93.0077 31.9712 92.9566 32.2421 92.8546 32.5482C92.7525 32.8465 92.5955 33.1527 92.3836 33.4667C92.1794 33.7729 91.9204 34.0751 91.6064 34.3735C91.2923 34.6718 90.9194 34.9387 90.4877 35.1742C90.0559 35.4019 89.5652 35.5864 89.0157 35.7277C88.474 35.869 87.8695 35.9396 87.2023 35.9396C86.3466 35.9396 85.5419 35.8101 84.7882 35.551C84.0425 35.2998 83.3869 34.8994 82.8217 34.3499C82.2643 33.7925 81.8247 33.0742 81.5028 32.195C81.181 31.3157 81.02 30.248 81.02 28.992C81.02 28.1206 81.1339 27.2845 81.3615 26.4838C81.597 25.6752 81.9582 24.9647 82.4449 24.3524C82.9395 23.74 83.5675 23.2533 84.329 22.8922C85.0983 22.5232 86.0208 22.3387 87.0963 22.3387C88.2346 22.3387 89.1923 22.5271 89.9695 22.904C90.7467 23.2729 91.3708 23.7989 91.8419 24.4819C92.3207 25.1649 92.6622 25.9892 92.8664 26.9548C93.0705 27.9204 93.1725 28.992 93.1725 30.1695H84.3761ZM89.7105 27.9557C89.7105 27.3905 89.6241 26.9195 89.4514 26.5426C89.2866 26.1658 89.0746 25.8675 88.8155 25.6477C88.5643 25.42 88.2856 25.263 87.9795 25.1767C87.6733 25.0825 87.3789 25.0354 87.0963 25.0354C86.8215 25.0354 86.531 25.0825 86.2249 25.1767C85.9187 25.263 85.6361 25.42 85.377 25.6477C85.1258 25.8675 84.9139 26.1658 84.7411 26.5426C84.5763 26.9195 84.4939 27.3905 84.4939 27.9557H89.7105ZM98.189 25.424H94.303V22.7155H105.396V25.424H101.51V35.551H98.189V25.424ZM107.386 32.0419H110.954V35.551H107.386V32.0419ZM114.098 32.0419H117.666V35.551H114.098V32.0419ZM120.81 32.0419H124.378V35.551H120.81V32.0419Z" fill="white"/>
</svg>
