<svg width="155" height="41" viewBox="0 0 155 41" fill="none" xmlns="http://www.w3.org/2000/svg">
<rect width="155" height="41" rx="15" fill="#BE7C62"/>
<path d="M23.5586 20.1152C23.5065 19.8353 23.4349 19.5911 23.3438 19.3828C23.2526 19.168 23.1322 18.9889 22.9824 18.8457C22.8392 18.696 22.6602 18.5853 22.4453 18.5137C22.237 18.4355 21.9831 18.3965 21.6836 18.3965C21.2214 18.3965 20.8503 18.5039 20.5703 18.7188C20.2969 18.9336 20.0853 19.2038 19.9355 19.5293C19.7858 19.8548 19.6849 20.2096 19.6328 20.5938C19.5872 20.9779 19.5645 21.3392 19.5645 21.6777C19.5645 22.0293 19.584 22.4004 19.623 22.791C19.6621 23.1751 19.7533 23.5299 19.8965 23.8555C20.0397 24.1745 20.2513 24.4382 20.5312 24.6465C20.8112 24.8548 21.1953 24.959 21.6836 24.959C22.0026 24.959 22.2793 24.8971 22.5137 24.7734C22.748 24.6432 22.9434 24.4837 23.0996 24.2949C23.2559 24.1061 23.3698 23.9043 23.4414 23.6895C23.5195 23.4746 23.5586 23.2793 23.5586 23.1035H26.4395C26.4395 23.2793 26.4069 23.5072 26.3418 23.7871C26.2832 24.0671 26.1823 24.3633 26.0391 24.6758C25.8958 24.9883 25.7038 25.304 25.4629 25.623C25.2285 25.9355 24.9323 26.2188 24.5742 26.4727C24.2227 26.7201 23.8092 26.9219 23.334 27.0781C22.8587 27.2409 22.3086 27.3223 21.6836 27.3223C20.8698 27.3223 20.1504 27.1986 19.5254 26.9512C18.9069 26.7038 18.3861 26.3424 17.9629 25.8672C17.5462 25.3854 17.2272 24.793 17.0059 24.0898C16.791 23.3867 16.6836 22.5827 16.6836 21.6777C16.6836 20.7728 16.8008 19.972 17.0352 19.2754C17.276 18.5723 17.6146 17.9831 18.0508 17.5078C18.487 17.026 19.0111 16.6615 19.623 16.4141C20.2415 16.1667 20.9284 16.043 21.6836 16.043C22.0091 16.043 22.3444 16.069 22.6895 16.1211C23.041 16.1732 23.3861 16.2643 23.7246 16.3945C24.0632 16.5182 24.3854 16.681 24.6914 16.8828C25.0039 17.0846 25.2806 17.3385 25.5215 17.6445C25.7689 17.944 25.9707 18.2988 26.127 18.709C26.2897 19.1126 26.3939 19.5814 26.4395 20.1152H23.5586ZM28.5293 16.3555H31.293V20.3984L35.2773 16.3555H38.9492L34.5547 20.7793L39.1348 27H35.5312L32.4062 22.5078L31.293 23.6309V27H28.5293V16.3555ZM49.2812 24.9004C49.2812 25.2194 49.2975 25.4831 49.3301 25.6914C49.3691 25.8932 49.418 26.056 49.4766 26.1797C49.5352 26.2969 49.6003 26.3848 49.6719 26.4434C49.75 26.4954 49.8314 26.5345 49.916 26.5605V27H46.8594C46.8073 26.8763 46.7487 26.7135 46.6836 26.5117C46.625 26.3034 46.5957 26.0527 46.5957 25.7598C46.3809 25.9811 46.1693 26.1862 45.9609 26.375C45.7591 26.5638 45.5312 26.7298 45.2773 26.873C45.0234 27.0098 44.7305 27.1172 44.3984 27.1953C44.0664 27.2799 43.666 27.3223 43.1973 27.3223C42.722 27.3223 42.2826 27.2507 41.8789 27.1074C41.4818 26.9707 41.1367 26.7656 40.8438 26.4922C40.5508 26.2188 40.3229 25.877 40.1602 25.4668C39.9974 25.0566 39.916 24.5814 39.916 24.041C39.916 23.6048 39.9844 23.2012 40.1211 22.8301C40.2578 22.4525 40.4499 22.1237 40.6973 21.8438C40.9512 21.5573 41.2572 21.3229 41.6152 21.1406C41.9798 20.9518 42.3867 20.8249 42.8359 20.7598L45.541 20.3594C45.6387 20.3464 45.7428 20.3268 45.8535 20.3008C45.9707 20.2747 46.0781 20.2324 46.1758 20.1738C46.2734 20.1087 46.3548 20.0241 46.4199 19.9199C46.485 19.8092 46.5176 19.6628 46.5176 19.4805C46.5176 19.3047 46.4883 19.1452 46.4297 19.002C46.3776 18.8522 46.2865 18.7253 46.1562 18.6211C46.026 18.5104 45.8503 18.4258 45.6289 18.3672C45.4141 18.3086 45.1439 18.2793 44.8184 18.2793C44.4473 18.2793 44.1478 18.3184 43.9199 18.3965C43.6986 18.4681 43.5228 18.5723 43.3926 18.709C43.2624 18.8392 43.168 18.9954 43.1094 19.1777C43.0508 19.3535 43.0085 19.5423 42.9824 19.7441H40.2188C40.2188 19.6139 40.2383 19.4349 40.2773 19.207C40.3229 18.9727 40.401 18.7188 40.5117 18.4453C40.6289 18.1719 40.7884 17.8952 40.9902 17.6152C41.1986 17.3353 41.4688 17.0814 41.8008 16.8535C42.1393 16.6191 42.5495 16.4271 43.0312 16.2773C43.513 16.1276 44.0892 16.0495 44.7598 16.043C45.7103 16.043 46.4785 16.1406 47.0645 16.3359C47.6569 16.5247 48.1159 16.7754 48.4414 17.0879C48.7734 17.3939 48.9948 17.7389 49.1055 18.123C49.2227 18.5007 49.2812 18.8783 49.2812 19.2559V24.9004ZM46.5176 21.8047C46.3483 21.8958 46.179 21.9805 46.0098 22.0586C45.8405 22.1302 45.6159 22.1921 45.3359 22.2441L44.6035 22.3809C44.2845 22.4395 44.0046 22.5078 43.7637 22.5859C43.5228 22.6641 43.321 22.7682 43.1582 22.8984C43.002 23.0221 42.8815 23.1751 42.7969 23.3574C42.7188 23.5397 42.6797 23.7676 42.6797 24.041C42.6797 24.2689 42.7155 24.4674 42.7871 24.6367C42.8587 24.7995 42.9564 24.9362 43.0801 25.0469C43.2103 25.151 43.36 25.2292 43.5293 25.2812C43.6986 25.3333 43.8809 25.3594 44.0762 25.3594C44.1803 25.3594 44.3138 25.3496 44.4766 25.3301C44.6393 25.304 44.8118 25.2585 44.9941 25.1934C45.1764 25.1283 45.3587 25.0404 45.541 24.9297C45.7233 24.8125 45.8861 24.6628 46.0293 24.4805C46.1725 24.2982 46.2897 24.0768 46.3809 23.8164C46.472 23.5495 46.5176 23.237 46.5176 22.8789V21.8047ZM60.2969 27H57.5332V22.8008C57.416 22.8529 57.2565 22.9082 57.0547 22.9668C56.8529 23.0189 56.6283 23.0677 56.3809 23.1133C56.14 23.1589 55.8861 23.1947 55.6191 23.2207C55.3587 23.2467 55.1081 23.2598 54.8672 23.2598C54.2617 23.2598 53.7246 23.2077 53.2559 23.1035C52.7871 22.9928 52.3932 22.8171 52.0742 22.5762C51.7552 22.3353 51.5143 22.0228 51.3516 21.6387C51.1888 21.248 51.1074 20.7695 51.1074 20.2031V16.3555H53.8711V19.6562C53.8711 19.9622 53.9069 20.2129 53.9785 20.4082C54.0566 20.6035 54.1738 20.7598 54.3301 20.877C54.4863 20.9941 54.6816 21.0755 54.916 21.1211C55.1504 21.1667 55.4271 21.1895 55.7461 21.1895C56.2214 21.1895 56.599 21.1471 56.8789 21.0625C57.1589 20.9714 57.377 20.8704 57.5332 20.7598V16.3555H60.2969V27ZM71.5469 24.9004C71.5469 25.2194 71.5632 25.4831 71.5957 25.6914C71.6348 25.8932 71.6836 26.056 71.7422 26.1797C71.8008 26.2969 71.8659 26.3848 71.9375 26.4434C72.0156 26.4954 72.097 26.5345 72.1816 26.5605V27H69.125C69.0729 26.8763 69.0143 26.7135 68.9492 26.5117C68.8906 26.3034 68.8613 26.0527 68.8613 25.7598C68.6465 25.9811 68.4349 26.1862 68.2266 26.375C68.0247 26.5638 67.7969 26.7298 67.543 26.873C67.2891 27.0098 66.9961 27.1172 66.6641 27.1953C66.332 27.2799 65.9316 27.3223 65.4629 27.3223C64.9876 27.3223 64.5482 27.2507 64.1445 27.1074C63.7474 26.9707 63.4023 26.7656 63.1094 26.4922C62.8164 26.2188 62.5885 25.877 62.4258 25.4668C62.263 25.0566 62.1816 24.5814 62.1816 24.041C62.1816 23.6048 62.25 23.2012 62.3867 22.8301C62.5234 22.4525 62.7155 22.1237 62.9629 21.8438C63.2168 21.5573 63.5228 21.3229 63.8809 21.1406C64.2454 20.9518 64.6523 20.8249 65.1016 20.7598L67.8066 20.3594C67.9043 20.3464 68.0085 20.3268 68.1191 20.3008C68.2363 20.2747 68.3438 20.2324 68.4414 20.1738C68.5391 20.1087 68.6204 20.0241 68.6855 19.9199C68.7507 19.8092 68.7832 19.6628 68.7832 19.4805C68.7832 19.3047 68.7539 19.1452 68.6953 19.002C68.6432 18.8522 68.5521 18.7253 68.4219 18.6211C68.2917 18.5104 68.1159 18.4258 67.8945 18.3672C67.6797 18.3086 67.4095 18.2793 67.084 18.2793C66.7129 18.2793 66.4134 18.3184 66.1855 18.3965C65.9642 18.4681 65.7884 18.5723 65.6582 18.709C65.528 18.8392 65.4336 18.9954 65.375 19.1777C65.3164 19.3535 65.2741 19.5423 65.248 19.7441H62.4844C62.4844 19.6139 62.5039 19.4349 62.543 19.207C62.5885 18.9727 62.6667 18.7188 62.7773 18.4453C62.8945 18.1719 63.054 17.8952 63.2559 17.6152C63.4642 17.3353 63.7344 17.0814 64.0664 16.8535C64.4049 16.6191 64.8151 16.4271 65.2969 16.2773C65.7786 16.1276 66.3548 16.0495 67.0254 16.043C67.9759 16.043 68.7441 16.1406 69.3301 16.3359C69.9225 16.5247 70.3815 16.7754 70.707 17.0879C71.0391 17.3939 71.2604 17.7389 71.3711 18.123C71.4883 18.5007 71.5469 18.8783 71.5469 19.2559V24.9004ZM68.7832 21.8047C68.6139 21.8958 68.4447 21.9805 68.2754 22.0586C68.1061 22.1302 67.8815 22.1921 67.6016 22.2441L66.8691 22.3809C66.5501 22.4395 66.2702 22.5078 66.0293 22.5859C65.7884 22.6641 65.5866 22.7682 65.4238 22.8984C65.2676 23.0221 65.1471 23.1751 65.0625 23.3574C64.9844 23.5397 64.9453 23.7676 64.9453 24.041C64.9453 24.2689 64.9811 24.4674 65.0527 24.6367C65.1243 24.7995 65.222 24.9362 65.3457 25.0469C65.4759 25.151 65.6257 25.2292 65.7949 25.2812C65.9642 25.3333 66.1465 25.3594 66.3418 25.3594C66.446 25.3594 66.5794 25.3496 66.7422 25.3301C66.9049 25.304 67.0775 25.2585 67.2598 25.1934C67.4421 25.1283 67.6243 25.0404 67.8066 24.9297C67.9889 24.8125 68.1517 24.6628 68.2949 24.4805C68.4382 24.2982 68.5553 24.0768 68.6465 23.8164C68.7376 23.5495 68.7832 23.237 68.7832 22.8789V21.8047ZM76.3809 18.6016H73.1582V16.3555H82.3574V18.6016H79.1348V27H76.3809V18.6016ZM84.0566 16.3555H86.8203V20.0566H89.6426C90.3001 20.0566 90.8861 20.125 91.4004 20.2617C91.9212 20.3984 92.3607 20.61 92.7188 20.8965C93.0768 21.1829 93.3503 21.5475 93.5391 21.9902C93.7279 22.4264 93.8223 22.944 93.8223 23.543C93.8223 24.0833 93.7441 24.5456 93.5879 24.9297C93.4316 25.3138 93.2298 25.6361 92.9824 25.8965C92.7415 26.1504 92.4714 26.3522 92.1719 26.502C91.8724 26.6452 91.5794 26.7559 91.293 26.834C91.0065 26.9056 90.7396 26.9512 90.4922 26.9707C90.2513 26.9902 90.0658 27 89.9355 27H84.0566V16.3555ZM86.8203 24.9199H89.1543C89.3691 24.9199 89.5807 24.9036 89.7891 24.8711C90.0039 24.832 90.196 24.7637 90.3652 24.666C90.541 24.5618 90.681 24.4219 90.7852 24.2461C90.8893 24.0638 90.9414 23.8294 90.9414 23.543C90.9414 23.263 90.8861 23.0319 90.7754 22.8496C90.6712 22.6673 90.5247 22.5241 90.3359 22.4199C90.1536 22.3158 89.9388 22.2441 89.6914 22.2051C89.4505 22.1595 89.1934 22.1367 88.9199 22.1367H86.8203V24.9199Z" fill="white"/>
</svg>
