<svg width="329" height="69" viewBox="0 0 329 69" fill="none" xmlns="http://www.w3.org/2000/svg">
<rect width="329" height="69" rx="30" fill="#FFE7E1"/>
<path d="M27.8057 37.7683C27.8057 36.2917 28.0283 34.9324 28.4736 33.6902C28.9307 32.448 29.5811 31.3816 30.4248 30.491C31.2803 29.5886 32.3115 28.8855 33.5186 28.3816C34.7256 27.8777 36.085 27.6257 37.5967 27.6257C39.1318 27.6257 40.5029 27.8777 41.71 28.3816C42.9287 28.8855 43.9541 29.5886 44.7861 30.491C45.6299 31.3816 46.2744 32.448 46.7197 33.6902C47.165 34.9324 47.3877 36.2917 47.3877 37.7683C47.3877 39.2449 47.165 40.6042 46.7197 41.8464C46.2744 43.0886 45.6299 44.1609 44.7861 45.0632C43.9541 45.9656 42.9287 46.6687 41.71 47.1726C40.5029 47.6765 39.1318 47.9285 37.5967 47.9285C36.085 47.9285 34.7256 47.6765 33.5186 47.1726C32.3115 46.6687 31.2803 45.9656 30.4248 45.0632C29.5811 44.1609 28.9307 43.0886 28.4736 41.8464C28.0283 40.6042 27.8057 39.2449 27.8057 37.7683ZM32.9912 37.7683C32.9912 38.4949 33.0674 39.2156 33.2197 39.9304C33.3838 40.6335 33.6475 41.2664 34.0107 41.8289C34.374 42.3796 34.8486 42.825 35.4346 43.1648C36.0205 43.5046 36.7412 43.6746 37.5967 43.6746C38.4873 43.6746 39.2256 43.5105 39.8115 43.1824C40.4092 42.8425 40.8838 42.4031 41.2354 41.864C41.5869 41.3132 41.833 40.6863 41.9736 39.9832C42.126 39.2683 42.2021 38.53 42.2021 37.7683C42.2021 37.0183 42.126 36.2859 41.9736 35.571C41.833 34.8562 41.5869 34.2292 41.2354 33.6902C40.8838 33.1394 40.4092 32.7 39.8115 32.3718C39.2256 32.032 38.4873 31.8621 37.5967 31.8621C36.7412 31.8621 36.0205 32.032 35.4346 32.3718C34.8486 32.7117 34.374 33.1628 34.0107 33.7253C33.6475 34.2761 33.3838 34.9089 33.2197 35.6238C33.0674 36.3269 32.9912 37.0417 32.9912 37.7683ZM55.1396 32.2312H49.3389V28.1882H65.8975V32.2312H60.0967V47.3484H55.1396V32.2312ZM68.9912 28.1882H76.4795L79.7139 42.0925H79.8018L82.9658 28.1882H90.2256V47.3484H85.5498V31.9324H85.4795L81.876 47.3484H77.3408L73.7549 31.9324H73.667V47.3484H68.9912V28.1882ZM98.5752 39.3152C98.5752 39.491 98.5928 39.7253 98.6279 40.0183C98.6631 40.3113 98.7334 40.6277 98.8389 40.9675C98.9443 41.3074 99.0967 41.6531 99.2959 42.0046C99.4951 42.3445 99.7588 42.655 100.087 42.9363C100.427 43.2175 100.837 43.446 101.317 43.6218C101.81 43.7976 102.396 43.8855 103.075 43.8855C103.427 43.8855 103.772 43.8386 104.112 43.7449C104.464 43.6394 104.786 43.4929 105.079 43.3054C105.372 43.1062 105.624 42.8718 105.835 42.6023C106.058 42.321 106.216 42.0046 106.31 41.6531H111.46C111.46 42.0046 111.384 42.4089 111.231 42.866C111.079 43.3113 110.845 43.7683 110.528 44.2371C110.224 44.6941 109.837 45.1453 109.368 45.5906C108.899 46.0359 108.343 46.4343 107.698 46.7859C107.054 47.1257 106.321 47.4011 105.501 47.6121C104.692 47.823 103.79 47.9285 102.794 47.9285C101.517 47.9285 100.315 47.7351 99.1904 47.3484C98.0771 46.9734 97.0986 46.3757 96.2549 45.5554C95.4229 44.7234 94.7666 43.6511 94.2861 42.3386C93.8057 41.0261 93.5654 39.4324 93.5654 37.5574C93.5654 36.2566 93.7354 35.0085 94.0752 33.8132C94.4268 32.6062 94.9658 31.5457 95.6924 30.6316C96.4307 29.7175 97.3682 28.991 98.5049 28.4519C99.6533 27.9011 101.03 27.6257 102.636 27.6257C104.335 27.6257 105.765 27.907 106.925 28.4695C108.085 29.0203 109.017 29.8054 109.72 30.825C110.435 31.8445 110.944 33.075 111.249 34.5164C111.554 35.9578 111.706 37.5574 111.706 39.3152H98.5752ZM106.538 36.0105C106.538 35.1667 106.409 34.4636 106.151 33.9011C105.905 33.3386 105.589 32.8933 105.202 32.5652C104.827 32.2253 104.411 31.991 103.954 31.8621C103.497 31.7214 103.058 31.6511 102.636 31.6511C102.226 31.6511 101.792 31.7214 101.335 31.8621C100.878 31.991 100.456 32.2253 100.069 32.5652C99.6943 32.8933 99.3779 33.3386 99.1201 33.9011C98.874 34.4636 98.751 35.1667 98.751 36.0105H106.538ZM119.194 32.2312H113.394V28.1882H129.952V32.2312H124.151V47.3484H119.194V32.2312ZM133.046 28.1882H138.021V40.0007H138.091L145.069 28.1882H150.29V47.3484H145.333V35.7996H145.245L138.478 47.3484H133.046V28.1882ZM159.202 32.2312H153.401V28.1882H169.96V32.2312H164.159V47.3484H159.202V32.2312ZM173.019 28.1882H177.993V34.8503H183.073C184.257 34.8503 185.312 34.9734 186.237 35.2195C187.175 35.4656 187.966 35.8464 188.61 36.3621C189.255 36.8777 189.747 37.5339 190.087 38.3308C190.427 39.116 190.597 40.0476 190.597 41.1257C190.597 42.0984 190.456 42.9304 190.175 43.6218C189.894 44.3132 189.53 44.8933 189.085 45.3621C188.651 45.8191 188.165 46.1824 187.626 46.4519C187.087 46.7097 186.56 46.9089 186.044 47.0496C185.528 47.1785 185.048 47.2605 184.603 47.2957C184.169 47.3308 183.835 47.3484 183.601 47.3484H173.019V28.1882ZM177.993 43.6042H182.194C182.581 43.6042 182.962 43.575 183.337 43.5164C183.724 43.446 184.069 43.323 184.374 43.1472C184.69 42.9597 184.942 42.7078 185.13 42.3914C185.317 42.0632 185.411 41.6414 185.411 41.1257C185.411 40.6218 185.312 40.2058 185.112 39.8777C184.925 39.5496 184.661 39.2917 184.321 39.1042C183.993 38.9167 183.606 38.7878 183.161 38.7175C182.728 38.6355 182.265 38.5945 181.772 38.5945H177.993V43.6042Z" fill="#BD2A2A"/>
<ellipse cx="279.943" cy="35.2982" rx="24.9432" ry="22.2982" fill="#BD2A2A"/>
<path d="M270 34L280.908 49.6629" stroke="white" stroke-width="2"/>
<path d="M286.7 21L280.709 50.0423" stroke="white" stroke-width="2"/>
</svg>
