<svg width="441" height="95" viewBox="0 0 441 95" fill="none" xmlns="http://www.w3.org/2000/svg">
<g filter="url(#filter0_d_220_76)">
<rect x="4" width="433" height="87" rx="30" fill="#FBFBFB"/>
<ellipse cx="70.5" cy="43" rx="29.5" ry="26" fill="#B1E30E"/>
<path d="M58.3722 37.2497C60.0873 37.2497 64.8038 42.0829 66.9477 44.4994L68.019 45.5351L69.091 44.4994L79.8104 34.1427C81.9543 32.0713 83.0262 30 87.314 30C90.7442 30 90.1725 34.1427 89.4579 36.214C83.0262 42.7733 69.9485 56.099 69.091 56.9275C68.019 57.9632 58.3722 47.6065 55.1564 44.4994C51.9405 41.3924 56.2283 37.2497 58.3722 37.2497Z" fill="white"/>
<path d="M145.938 29.5469H162.836C164.242 29.5469 165.477 29.6797 166.539 29.9453C167.617 30.2109 168.547 30.5703 169.328 31.0234C170.109 31.4766 170.766 32 171.297 32.5938C171.828 33.1875 172.25 33.8125 172.562 34.4688C172.875 35.1094 173.094 35.7656 173.219 36.4375C173.359 37.1094 173.43 37.75 173.43 38.3594C173.43 39.2344 173.352 40.0234 173.195 40.7266C173.039 41.4141 172.789 42.0469 172.445 42.625C172.117 43.1875 171.68 43.7031 171.133 44.1719C170.602 44.625 169.961 45.0391 169.211 45.4141C170.367 45.8516 171.297 46.3906 172 47.0312C172.703 47.6719 173.242 48.3672 173.617 49.1172C173.992 49.8516 174.242 50.6172 174.367 51.4141C174.492 52.1953 174.555 52.9531 174.555 53.6875C174.555 55.3594 174.25 56.8359 173.641 58.1172C173.031 59.3984 172.172 60.4766 171.062 61.3516C169.953 62.2109 168.602 62.8672 167.008 63.3203C165.43 63.7734 163.672 64 161.734 64H145.938V29.5469ZM152.852 58.0469H161.828C162.625 58.0469 163.359 57.9531 164.031 57.7656C164.703 57.5781 165.281 57.2969 165.766 56.9219C166.266 56.5312 166.648 56.0469 166.914 55.4688C167.195 54.875 167.336 54.1797 167.336 53.3828C167.336 52.3828 167.172 51.5859 166.844 50.9922C166.516 50.3828 166.078 49.9141 165.531 49.5859C165 49.2578 164.391 49.0469 163.703 48.9531C163.031 48.8438 162.344 48.7891 161.641 48.7891H152.852V58.0469ZM152.852 43.1172H161.734C162.359 43.1172 162.961 43.0469 163.539 42.9062C164.117 42.7656 164.625 42.5391 165.062 42.2266C165.516 41.8984 165.875 41.4844 166.141 40.9844C166.406 40.4844 166.539 39.8828 166.539 39.1797C166.539 38.4453 166.414 37.8438 166.164 37.375C165.93 36.8906 165.602 36.5078 165.18 36.2266C164.758 35.9453 164.266 35.75 163.703 35.6406C163.141 35.5312 162.547 35.4766 161.922 35.4766H152.852V43.1172ZM200.5 58.9609C200.5 59.7266 200.539 60.3594 200.617 60.8594C200.711 61.3438 200.828 61.7344 200.969 62.0312C201.109 62.3125 201.266 62.5234 201.438 62.6641C201.625 62.7891 201.82 62.8828 202.023 62.9453V64H194.688C194.562 63.7031 194.422 63.3125 194.266 62.8281C194.125 62.3281 194.055 61.7266 194.055 61.0234C193.539 61.5547 193.031 62.0469 192.531 62.5C192.047 62.9531 191.5 63.3516 190.891 63.6953C190.281 64.0234 189.578 64.2812 188.781 64.4688C187.984 64.6719 187.023 64.7734 185.898 64.7734C184.758 64.7734 183.703 64.6016 182.734 64.2578C181.781 63.9297 180.953 63.4375 180.25 62.7812C179.547 62.125 179 61.3047 178.609 60.3203C178.219 59.3359 178.023 58.1953 178.023 56.8984C178.023 55.8516 178.188 54.8828 178.516 53.9922C178.844 53.0859 179.305 52.2969 179.898 51.625C180.508 50.9375 181.242 50.375 182.102 49.9375C182.977 49.4844 183.953 49.1797 185.031 49.0234L191.523 48.0625C191.758 48.0312 192.008 47.9844 192.273 47.9219C192.555 47.8594 192.812 47.7578 193.047 47.6172C193.281 47.4609 193.477 47.2578 193.633 47.0078C193.789 46.7422 193.867 46.3906 193.867 45.9531C193.867 45.5312 193.797 45.1484 193.656 44.8047C193.531 44.4453 193.312 44.1406 193 43.8906C192.688 43.625 192.266 43.4219 191.734 43.2812C191.219 43.1406 190.57 43.0703 189.789 43.0703C188.898 43.0703 188.18 43.1641 187.633 43.3516C187.102 43.5234 186.68 43.7734 186.367 44.1016C186.055 44.4141 185.828 44.7891 185.688 45.2266C185.547 45.6484 185.445 46.1016 185.383 46.5859H178.75C178.75 46.2734 178.797 45.8438 178.891 45.2969C179 44.7344 179.188 44.125 179.453 43.4688C179.734 42.8125 180.117 42.1484 180.602 41.4766C181.102 40.8047 181.75 40.1953 182.547 39.6484C183.359 39.0859 184.344 38.625 185.5 38.2656C186.656 37.9062 188.039 37.7188 189.648 37.7031C191.93 37.7031 193.773 37.9375 195.18 38.4062C196.602 38.8594 197.703 39.4609 198.484 40.2109C199.281 40.9453 199.812 41.7734 200.078 42.6953C200.359 43.6016 200.5 44.5078 200.5 45.4141V58.9609ZM193.867 51.5312C193.461 51.75 193.055 51.9531 192.648 52.1406C192.242 52.3125 191.703 52.4609 191.031 52.5859L189.273 52.9141C188.508 53.0547 187.836 53.2188 187.258 53.4062C186.68 53.5938 186.195 53.8438 185.805 54.1562C185.43 54.4531 185.141 54.8203 184.938 55.2578C184.75 55.6953 184.656 56.2422 184.656 56.8984C184.656 57.4453 184.742 57.9219 184.914 58.3281C185.086 58.7188 185.32 59.0469 185.617 59.3125C185.93 59.5625 186.289 59.75 186.695 59.875C187.102 60 187.539 60.0625 188.008 60.0625C188.258 60.0625 188.578 60.0391 188.969 59.9922C189.359 59.9297 189.773 59.8203 190.211 59.6641C190.648 59.5078 191.086 59.2969 191.523 59.0312C191.961 58.75 192.352 58.3906 192.695 57.9531C193.039 57.5156 193.32 56.9844 193.539 56.3594C193.758 55.7188 193.867 54.9688 193.867 54.1094V51.5312ZM226.773 48.6016H228.039L235.047 38.4531H242.617L234.039 50.2656L243.062 64H235.047L228.039 53.1484H226.773V64H220.164V53.1484H218.711L211.516 64H203.781L212.852 50.2656L204.367 38.4531H211.961L218.922 48.6016H220.164V38.4531H226.773V48.6016ZM246.602 38.4531H253.234V47.6875H262.984V38.4531H269.594V64H262.984V53.0547H253.234V64H246.602V38.4531ZM274.422 51.2266C274.422 49.2578 274.719 47.4453 275.312 45.7891C275.922 44.1328 276.789 42.7109 277.914 41.5234C279.055 40.3203 280.43 39.3828 282.039 38.7109C283.648 38.0391 285.461 37.7031 287.477 37.7031C289.523 37.7031 291.352 38.0391 292.961 38.7109C294.586 39.3828 295.953 40.3203 297.062 41.5234C298.188 42.7109 299.047 44.1328 299.641 45.7891C300.234 47.4453 300.531 49.2578 300.531 51.2266C300.531 53.1953 300.234 55.0078 299.641 56.6641C299.047 58.3203 298.188 59.75 297.062 60.9531C295.953 62.1562 294.586 63.0938 292.961 63.7656C291.352 64.4375 289.523 64.7734 287.477 64.7734C285.461 64.7734 283.648 64.4375 282.039 63.7656C280.43 63.0938 279.055 62.1562 277.914 60.9531C276.789 59.75 275.922 58.3203 275.312 56.6641C274.719 55.0078 274.422 53.1953 274.422 51.2266ZM281.336 51.2266C281.336 52.1953 281.438 53.1562 281.641 54.1094C281.859 55.0469 282.211 55.8906 282.695 56.6406C283.18 57.375 283.812 57.9688 284.594 58.4219C285.375 58.875 286.336 59.1016 287.477 59.1016C288.664 59.1016 289.648 58.8828 290.43 58.4453C291.227 57.9922 291.859 57.4062 292.328 56.6875C292.797 55.9531 293.125 55.1172 293.312 54.1797C293.516 53.2266 293.617 52.2422 293.617 51.2266C293.617 50.2266 293.516 49.25 293.312 48.2969C293.125 47.3438 292.797 46.5078 292.328 45.7891C291.859 45.0547 291.227 44.4688 290.43 44.0312C289.648 43.5781 288.664 43.3516 287.477 43.3516C286.336 43.3516 285.375 43.5781 284.594 44.0312C283.812 44.4844 283.18 45.0859 282.695 45.8359C282.211 46.5703 281.859 47.4141 281.641 48.3672C281.438 49.3047 281.336 50.2578 281.336 51.2266Z" fill="#4D4E50"/>
</g>
<defs>
<filter id="filter0_d_220_76" x="0" y="0" width="441" height="95" filterUnits="userSpaceOnUse" color-interpolation-filters="sRGB">
<feFlood flood-opacity="0" result="BackgroundImageFix"/>
<feColorMatrix in="SourceAlpha" type="matrix" values="0 0 0 0 0 0 0 0 0 0 0 0 0 0 0 0 0 0 127 0" result="hardAlpha"/>
<feOffset dy="4"/>
<feGaussianBlur stdDeviation="2"/>
<feComposite in2="hardAlpha" operator="out"/>
<feColorMatrix type="matrix" values="0 0 0 0 0 0 0 0 0 0 0 0 0 0 0 0 0 0 0.25 0"/>
<feBlend mode="normal" in2="BackgroundImageFix" result="effect1_dropShadow_220_76"/>
<feBlend mode="normal" in="SourceGraphic" in2="effect1_dropShadow_220_76" result="shape"/>
</filter>
</defs>
</svg>
