<svg width="186" height="45" viewBox="0 0 186 45" fill="none" xmlns="http://www.w3.org/2000/svg">
<rect x="0.00976562" y="0.866699" width="185.99" height="43.1763" rx="21.5882" fill="#E196A4"/>
<path d="M25.402 17.7336H28.1556V21.5674H32.2034V17.7336H34.9473V28.3396H32.2034V23.7956H28.1556V28.3396H25.402V17.7336ZM46.1566 26.2476C46.1566 26.5655 46.1728 26.8282 46.2052 27.0357C46.2441 27.2368 46.2928 27.399 46.3512 27.5223C46.4095 27.639 46.4744 27.7266 46.5458 27.785C46.6236 27.8369 46.7047 27.8758 46.789 27.9017V28.3396H43.7435C43.6916 28.2163 43.6332 28.0542 43.5683 27.8531C43.5099 27.6455 43.4807 27.3958 43.4807 27.1039C43.2667 27.3244 43.0559 27.5287 42.8483 27.7169C42.6472 27.905 42.4201 28.0704 42.1672 28.2131C41.9142 28.3493 41.6223 28.4564 41.2914 28.5342C40.9606 28.6185 40.5617 28.6607 40.0946 28.6607C39.6211 28.6607 39.1832 28.5893 38.781 28.4466C38.3853 28.3104 38.0415 28.1061 37.7496 27.8336C37.4577 27.5612 37.2307 27.2206 37.0685 26.812C36.9063 26.4033 36.8253 25.9297 36.8253 25.3913C36.8253 24.9567 36.8934 24.5545 37.0296 24.1848C37.1658 23.8086 37.3572 23.481 37.6037 23.202C37.8567 22.9166 38.1615 22.6831 38.5183 22.5015C38.8816 22.3133 39.287 22.1868 39.7346 22.122L42.4299 21.723C42.5272 21.7101 42.631 21.6906 42.7412 21.6647C42.858 21.6387 42.965 21.5965 43.0623 21.5382C43.1596 21.4733 43.2407 21.389 43.3056 21.2852C43.3705 21.1749 43.4029 21.0289 43.4029 20.8473C43.4029 20.6722 43.3737 20.5132 43.3153 20.3705C43.2634 20.2213 43.1726 20.0948 43.0429 19.9911C42.9131 19.8808 42.738 19.7965 42.5174 19.7381C42.3034 19.6797 42.0342 19.6505 41.7098 19.6505C41.3401 19.6505 41.0417 19.6894 40.8147 19.7673C40.5941 19.8386 40.419 19.9424 40.2892 20.0786C40.1595 20.2084 40.0654 20.364 40.007 20.5457C39.9487 20.7208 39.9065 20.9089 39.8806 21.11H37.1269C37.1269 20.9803 37.1464 20.8019 37.1853 20.5749C37.2307 20.3413 37.3085 20.0884 37.4188 19.8159C37.5356 19.5435 37.6945 19.2678 37.8956 18.9888C38.1032 18.7099 38.3724 18.4569 38.7032 18.2299C39.0405 17.9964 39.4492 17.805 39.9292 17.6558C40.4092 17.5066 40.9833 17.4288 41.6515 17.4223C42.5985 17.4223 43.364 17.5196 43.9478 17.7142C44.5381 17.9023 44.9954 18.152 45.3198 18.4634C45.6506 18.7683 45.8711 19.1121 45.9814 19.4948C46.0982 19.8711 46.1566 20.2473 46.1566 20.6235V26.2476ZM43.4029 23.1631C43.2342 23.2539 43.0656 23.3383 42.8969 23.4161C42.7283 23.4875 42.5045 23.5491 42.2255 23.601L41.4958 23.7372C41.1779 23.7956 40.899 23.8637 40.659 23.9415C40.419 24.0194 40.2179 24.1232 40.0557 24.2529C39.9 24.3762 39.78 24.5286 39.6957 24.7102C39.6178 24.8919 39.5789 25.1189 39.5789 25.3913C39.5789 25.6184 39.6146 25.8162 39.6859 25.9849C39.7573 26.1471 39.8546 26.2833 39.9779 26.3936C40.1076 26.4973 40.2568 26.5752 40.4254 26.6271C40.5941 26.679 40.7757 26.7049 40.9703 26.7049C41.0741 26.7049 41.2071 26.6952 41.3693 26.6757C41.5314 26.6498 41.7033 26.6044 41.885 26.5395C42.0666 26.4746 42.2482 26.3871 42.4299 26.2768C42.6115 26.16 42.7737 26.0108 42.9164 25.8292C43.0591 25.6476 43.1759 25.427 43.2667 25.1675C43.3575 24.9016 43.4029 24.5902 43.4029 24.2334V23.1631ZM48.6767 17.7336H58.222V28.3396H55.4781V19.9716H51.4303V28.3396H48.6767V17.7336ZM60.8589 17.7336H63.6126V24.2724H63.6515L67.5144 17.7336H70.4043V28.3396H67.6604V21.9468H67.6117L63.8656 28.3396H60.8589V17.7336ZM79.2588 21.4798C79.2069 21.2009 79.1356 20.9576 79.0447 20.75C78.9539 20.536 78.8339 20.3576 78.6847 20.2149C78.542 20.0657 78.3636 19.9554 78.1496 19.884C77.942 19.8062 77.689 19.7673 77.3906 19.7673C76.93 19.7673 76.5603 19.8743 76.2814 20.0884C76.0089 20.3024 75.7981 20.5716 75.6489 20.896C75.4997 21.2203 75.3992 21.5738 75.3473 21.9566C75.3019 22.3393 75.2791 22.6993 75.2791 23.0366C75.2791 23.3869 75.2986 23.7567 75.3375 24.1459C75.3764 24.5286 75.4673 24.8821 75.61 25.2065C75.7527 25.5243 75.9635 25.787 76.2424 25.9946C76.5214 26.2022 76.9041 26.306 77.3906 26.306C77.7085 26.306 77.9842 26.2444 78.2177 26.1211C78.4512 25.9914 78.6458 25.8324 78.8015 25.6443C78.9572 25.4562 79.0707 25.2551 79.1421 25.041C79.2199 24.827 79.2588 24.6324 79.2588 24.4572H82.1292C82.1292 24.6324 82.0968 24.8594 82.0319 25.1384C81.9735 25.4173 81.873 25.7124 81.7303 26.0238C81.5876 26.3352 81.3962 26.6498 81.1562 26.9676C80.9227 27.279 80.6275 27.5612 80.2708 27.8142C79.9205 28.0607 79.5086 28.2618 79.035 28.4174C78.5615 28.5796 78.0133 28.6607 77.3906 28.6607C76.5798 28.6607 75.863 28.5374 75.2402 28.2909C74.624 28.0444 74.105 27.6844 73.6834 27.2109C73.2682 26.7309 72.9504 26.1406 72.7298 25.44C72.5158 24.7394 72.4087 23.9383 72.4087 23.0366C72.4087 22.135 72.5255 21.3371 72.759 20.643C72.999 19.9424 73.3363 19.3553 73.771 18.8818C74.2056 18.4018 74.7278 18.0385 75.3375 17.792C75.9538 17.5455 76.6381 17.4223 77.3906 17.4223C77.7149 17.4223 78.049 17.4482 78.3928 17.5001C78.7431 17.552 79.0869 17.6428 79.4242 17.7726C79.7615 17.8958 80.0826 18.058 80.3875 18.2591C80.6989 18.4602 80.9746 18.7132 81.2146 19.018C81.4611 19.3164 81.6622 19.67 81.8179 20.0786C81.98 20.4808 82.0838 20.9479 82.1292 21.4798H79.2588ZM92.706 26.2476C92.706 26.5655 92.7222 26.8282 92.7547 27.0357C92.7936 27.2368 92.8422 27.399 92.9006 27.5223C92.959 27.639 93.0239 27.7266 93.0952 27.785C93.1731 27.8369 93.2541 27.8758 93.3385 27.9017V28.3396H90.2929C90.241 28.2163 90.1826 28.0542 90.1178 27.8531C90.0594 27.6455 90.0302 27.3958 90.0302 27.1039C89.8161 27.3244 89.6053 27.5287 89.3977 27.7169C89.1966 27.905 88.9696 28.0704 88.7166 28.2131C88.4636 28.3493 88.1717 28.4564 87.8409 28.5342C87.5101 28.6185 87.1111 28.6607 86.6441 28.6607C86.1705 28.6607 85.7327 28.5893 85.3305 28.4466C84.9348 28.3104 84.591 28.1061 84.2991 27.8336C84.0072 27.5612 83.7801 27.2206 83.618 26.812C83.4558 26.4033 83.3747 25.9297 83.3747 25.3913C83.3747 24.9567 83.4428 24.5545 83.579 24.1848C83.7153 23.8086 83.9066 23.481 84.1531 23.202C84.4061 22.9166 84.711 22.6831 85.0678 22.5015C85.431 22.3133 85.8365 22.1868 86.284 22.122L88.9793 21.723C89.0766 21.7101 89.1804 21.6906 89.2907 21.6647C89.4074 21.6387 89.5145 21.5965 89.6118 21.5382C89.7091 21.4733 89.7902 21.389 89.855 21.2852C89.9199 21.1749 89.9523 21.0289 89.9523 20.8473C89.9523 20.6722 89.9232 20.5132 89.8648 20.3705C89.8129 20.2213 89.7221 20.0948 89.5923 19.9911C89.4626 19.8808 89.2874 19.7965 89.0669 19.7381C88.8528 19.6797 88.5836 19.6505 88.2593 19.6505C87.8895 19.6505 87.5911 19.6894 87.3641 19.7673C87.1435 19.8386 86.9684 19.9424 86.8387 20.0786C86.7089 20.2084 86.6149 20.364 86.5565 20.5457C86.4981 20.7208 86.4559 20.9089 86.43 21.11H83.6763C83.6763 20.9803 83.6958 20.8019 83.7347 20.5749C83.7801 20.3413 83.858 20.0884 83.9682 19.8159C84.085 19.5435 84.2439 19.2678 84.445 18.9888C84.6526 18.7099 84.9218 18.4569 85.2526 18.2299C85.59 17.9964 85.9986 17.805 86.4786 17.6558C86.9587 17.5066 87.5328 17.4288 88.2009 17.4223C89.148 17.4223 89.9134 17.5196 90.4972 17.7142C91.0875 17.9023 91.5449 18.152 91.8692 18.4634C92.2 18.7683 92.4206 19.1121 92.5309 19.4948C92.6476 19.8711 92.706 20.2473 92.706 20.6235V26.2476ZM89.9523 23.1631C89.7837 23.2539 89.615 23.3383 89.4464 23.4161C89.2777 23.4875 89.0539 23.5491 88.775 23.601L88.0452 23.7372C87.7274 23.7956 87.4484 23.8637 87.2084 23.9415C86.9684 24.0194 86.7673 24.1232 86.6051 24.2529C86.4495 24.3762 86.3295 24.5286 86.2451 24.7102C86.1673 24.8919 86.1284 25.1189 86.1284 25.3913C86.1284 25.6184 86.164 25.8162 86.2354 25.9849C86.3067 26.1471 86.404 26.2833 86.5273 26.3936C86.657 26.4973 86.8062 26.5752 86.9749 26.6271C87.1435 26.679 87.3252 26.7049 87.5198 26.7049C87.6236 26.7049 87.7566 26.6952 87.9187 26.6757C88.0809 26.6498 88.2528 26.6044 88.4344 26.5395C88.6161 26.4746 88.7977 26.3871 88.9793 26.2768C89.161 26.16 89.3231 26.0108 89.4658 25.8292C89.6085 25.6476 89.7253 25.427 89.8161 25.1675C89.9069 24.9016 89.9523 24.5902 89.9523 24.2334V23.1631ZM97.5225 19.9716H94.3115V17.7336H103.477V19.9716H100.266V28.3396H97.5225V19.9716ZM105.17 17.7336H107.924V21.4214H110.736C111.391 21.4214 111.975 21.4895 112.488 21.6257C113.007 21.762 113.444 21.9728 113.801 22.2582C114.158 22.5436 114.43 22.9069 114.618 23.348C114.807 23.7826 114.901 24.2983 114.901 24.8951C114.901 25.4335 114.823 25.8941 114.667 26.2768C114.511 26.6595 114.31 26.9806 114.064 27.2401C113.824 27.4931 113.555 27.6942 113.256 27.8434C112.958 27.9861 112.666 28.0963 112.381 28.1742C112.095 28.2455 111.829 28.2909 111.583 28.3104C111.343 28.3299 111.158 28.3396 111.028 28.3396H105.17V17.7336ZM107.924 26.2671H110.25C110.464 26.2671 110.675 26.2508 110.882 26.2184C111.096 26.1795 111.288 26.1114 111.456 26.0141C111.631 25.9103 111.771 25.7708 111.875 25.5957C111.978 25.414 112.03 25.1805 112.03 24.8951C112.03 24.6162 111.975 24.3859 111.865 24.2042C111.761 24.0226 111.615 23.8799 111.427 23.7761C111.245 23.6723 111.031 23.601 110.785 23.5621C110.545 23.5166 110.289 23.4939 110.016 23.4939H107.924V26.2671Z" fill="#FBFCFF"/>
<ellipse cx="159.198" cy="22.455" rx="12.9949" ry="11.7409" fill="black"/>
<path d="M154.325 16.0159L164.071 28.5143" stroke="white" stroke-width="1.66063"/>
<path d="M164.732 16.0159L154.667 28.292" stroke="white" stroke-width="1.66063"/>
</svg>
