<svg width="113" height="109" viewBox="0 0 113 109" fill="none" xmlns="http://www.w3.org/2000/svg">
<rect width="113" height="109" rx="30" fill="#D61A17"/>
<path d="M44.6254 38.2627C40.4612 48.9116 42.1016 52.5598 43.4424 53.0529C47.7013 57.9008 57.0237 68.3361 60.2415 71.2941C64.2638 74.9917 64.737 72.5266 71.8352 70.5546C78.9333 68.5826 86.0314 74.7451 91.2367 78.4427C96.442 82.1402 93.8394 87.3168 87.2145 94.2189C80.5895 101.121 59.2951 86.3308 49.1211 77.7032C38.9471 69.0756 24.9873 46.6438 20.965 35.7976C16.9428 24.9515 26.407 17.3099 32.5587 18.0494C37.4801 18.641 42.6537 31.7714 44.6254 38.2627Z" fill="white"/>
</svg>
