<svg width="206" height="49" viewBox="0 0 206 49" fill="none" xmlns="http://www.w3.org/2000/svg">
<rect y="0.931885" width="206" height="48.0059" rx="21.8761" fill="#FFE7E1"/>
<path d="M18.1042 20.2874H21.463V25.201L26.3053 20.2874H30.7679L25.4271 25.6639L30.9934 33.2241H26.6139L22.816 27.7646L21.463 29.1295V33.2241H18.1042V20.2874ZM32.0972 26.7558C32.0972 25.7588 32.2475 24.841 32.5482 24.0023C32.8568 23.1636 33.2959 22.4435 33.8656 21.8422C34.4432 21.2329 35.1395 20.7582 35.9545 20.418C36.7694 20.0777 37.6873 19.9076 38.708 19.9076C39.7445 19.9076 40.6702 20.0777 41.4852 20.418C42.3081 20.7582 43.0004 21.2329 43.5622 21.8422C44.1319 22.4435 44.5671 23.1636 44.8678 24.0023C45.1684 24.841 45.3188 25.7588 45.3188 26.7558C45.3188 27.7527 45.1684 28.6706 44.8678 29.5093C44.5671 30.348 44.1319 31.072 43.5622 31.6812C43.0004 32.2905 42.3081 32.7652 41.4852 33.1054C40.6702 33.4457 39.7445 33.6158 38.708 33.6158C37.6873 33.6158 36.7694 33.4457 35.9545 33.1054C35.1395 32.7652 34.4432 32.2905 33.8656 31.6812C33.2959 31.072 32.8568 30.348 32.5482 29.5093C32.2475 28.6706 32.0972 27.7527 32.0972 26.7558ZM35.5984 26.7558C35.5984 27.2463 35.6498 27.7329 35.7527 28.2156C35.8635 28.6903 36.0415 29.1176 36.2868 29.4974C36.5321 29.8693 36.8525 30.1699 37.2481 30.3994C37.6438 30.6289 38.1304 30.7436 38.708 30.7436C39.3093 30.7436 39.8078 30.6328 40.2034 30.4113C40.6069 30.1818 40.9274 29.8851 41.1648 29.5211C41.4021 29.1493 41.5683 28.7259 41.6632 28.2512C41.7661 27.7685 41.8175 27.2701 41.8175 26.7558C41.8175 26.2494 41.7661 25.7549 41.6632 25.2722C41.5683 24.7895 41.4021 24.3662 41.1648 24.0023C40.9274 23.6304 40.6069 23.3337 40.2034 23.1121C39.8078 22.8827 39.3093 22.7679 38.708 22.7679C38.1304 22.7679 37.6438 22.8827 37.2481 23.1121C36.8525 23.3416 36.5321 23.6462 36.2868 24.026C36.0415 24.3979 35.8635 24.8251 35.7527 25.3078C35.6498 25.7825 35.5984 26.2652 35.5984 26.7558ZM46.6362 30.5062H47.9773C48.2938 29.9128 48.5549 29.2917 48.7606 28.6429C48.9743 27.9861 49.1444 27.3255 49.271 26.6608C49.3976 25.9962 49.4886 25.3474 49.544 24.7144C49.5993 24.0735 49.6389 23.4721 49.6626 22.9104C49.6864 22.3486 49.6943 21.8422 49.6864 21.3912C49.6864 20.9402 49.6903 20.5723 49.6983 20.2874H59.8103V30.5062H61.4362V36.3337H58.2792V33.2241H49.7932V36.3337H46.6362V30.5062ZM56.4633 30.5062V23.0172H52.6179C52.6179 23.2545 52.614 23.5473 52.606 23.8954C52.606 24.2436 52.5902 24.6313 52.5586 25.0586C52.5348 25.4779 52.4953 25.925 52.4399 26.3997C52.3924 26.8744 52.3172 27.3492 52.2144 27.8239C52.1194 28.2987 52.0007 28.7655 51.8583 29.2244C51.7238 29.6833 51.5537 30.1106 51.348 30.5062H56.4633ZM63.2996 20.2874H66.6584V28.2631H66.7059L71.4177 20.2874H74.9426V33.2241H71.5957V25.4265H71.5364L66.967 33.2241H63.2996V20.2874ZM80.96 23.0172H77.0434V20.2874H88.2235V23.0172H84.3069V33.2241H80.96V23.0172ZM90.2887 20.2874H93.6475V24.7856H97.0775C97.8766 24.7856 98.5887 24.8687 99.2138 25.0348C99.8468 25.201 100.381 25.4581 100.816 25.8063C101.251 26.1544 101.584 26.5975 101.813 27.1356C102.042 27.6657 102.157 28.2947 102.157 29.0227C102.157 29.6794 102.062 30.2412 101.872 30.708C101.682 31.1748 101.437 31.5665 101.137 31.883C100.844 32.1916 100.515 32.4368 100.151 32.6188C99.7875 32.7929 99.4314 32.9274 99.0833 33.0224C98.7351 33.1094 98.4107 33.1648 98.11 33.1885C97.8173 33.2123 97.5918 33.2241 97.4335 33.2241H90.2887V20.2874ZM93.6475 30.6961H96.4841C96.7452 30.6961 97.0023 30.6763 97.2555 30.6368C97.5166 30.5893 97.75 30.5062 97.9558 30.3875C98.1694 30.2609 98.3395 30.0908 98.4661 29.8772C98.5927 29.6556 98.656 29.3708 98.656 29.0227C98.656 28.6824 98.5887 28.4015 98.4542 28.18C98.3276 27.9584 98.1496 27.7844 97.9202 27.6578C97.6986 27.5312 97.4375 27.4441 97.1368 27.3967C96.8441 27.3413 96.5315 27.3136 96.1992 27.3136H93.6475V30.6961Z" fill="#BD2A2A"/>
<ellipse cx="175.284" cy="25.49" rx="15.6179" ry="15.5137" fill="#BD2A2A"/>
<path d="M168.391 23.5301C169.247 23.5301 171.6 25.8717 172.67 27.0424L173.204 27.5442L173.739 27.0424L179.087 22.0248C180.157 21.0213 180.692 20.0178 182.831 20.0178C184.543 20.0178 184.258 22.0248 183.901 23.0284C180.692 26.2062 174.167 32.6621 173.739 33.0635C173.204 33.5653 168.391 28.5477 166.786 27.0424C165.182 25.5371 167.321 23.5301 168.391 23.5301Z" fill="white"/>
</svg>
