<svg width="125" height="121" viewBox="0 0 125 121" fill="none" xmlns="http://www.w3.org/2000/svg">
<path d="M27.2465 0.139339C7.78472 0.391696 0.97309 15.8065 0 23.4823L0.324363 97.9275C3.69774 117.611 17.9481 121.481 24.6516 120.955H100.228C116.057 120.955 123.042 106.655 124.556 99.5047V30.4221C127.929 7.20532 107.148 0.559934 96.3359 0.139339C81.4152 0.0341905 46.7083 -0.113017 27.2465 0.139339Z" fill="#312E29"/>
<path d="M116.4 60.2497C116.4 89.1285 92.3241 112.557 62.6032 112.557C32.8824 112.557 8.80676 89.1285 8.80676 60.2497C8.80676 31.371 32.8824 7.94251 62.6032 7.94251C92.3241 7.94251 116.4 31.371 116.4 60.2497Z" fill="#E6E1DD" stroke="#E5E5E5" stroke-width="0.744387"/>
<ellipse cx="62.6017" cy="17.3495" rx="3.568" ry="3.4699" fill="#312E29"/>
<ellipse cx="106.717" cy="60.2504" rx="3.568" ry="3.4699" fill="#231E1A"/>
<path d="M65.7975 102.52C65.7975 104.221 64.3765 105.618 62.6017 105.618C60.8268 105.618 59.4059 104.221 59.4059 102.52C59.4059 100.819 60.8268 99.4225 62.6017 99.4225C64.3765 99.4225 65.7975 100.819 65.7975 102.52Z" fill="#282320" stroke="black" stroke-width="0.744387"/>
<ellipse cx="18.486" cy="60.2504" rx="3.568" ry="3.4699" fill="#25221D"/>
<rect width="43.91" height="3.84115" rx="1.92058" transform="matrix(0.856894 0.515492 -0.536703 0.843771 24.1191 34.689)" fill="#1D1916"/>
<rect width="30.3699" height="3.64824" rx="1.82412" transform="matrix(0.224401 0.974497 -0.977096 0.212798 65.1938 62.4587)" fill="#191715"/>
<rect width="42.594" height="2.39647" rx="1.19824" transform="matrix(0.296314 -0.95509 0.959546 0.281552 48.0039 103.139)" fill="#E09832"/>
<rect width="8.23032" height="2.19096" rx="1.09548" transform="matrix(0.296314 -0.95509 0.959546 0.281552 62.2788 57.7012)" fill="#E09832"/>
<ellipse cx="62.6014" cy="60.2504" rx="2.91927" ry="2.83901" fill="white"/>
<ellipse cx="62.601" cy="60.2503" rx="0.97309" ry="0.946337" fill="#E09832"/>
</svg>
