<svg width="106" height="24" viewBox="0 0 106 24" fill="none" xmlns="http://www.w3.org/2000/svg">
<rect width="106" height="24" rx="10" fill="#FBFBFB"/>
<ellipse cx="16" cy="12.5" rx="7" ry="6.5" fill="#B1E30E"/>
<path d="M13.093 11.8796C13.5218 11.8796 14.701 13.1326 15.2369 13.7591L15.5048 14.0276L15.7727 13.7591L18.4526 11.074C18.9886 10.537 19.2566 10 20.3285 10C21.1861 10 21.0431 11.074 20.8645 11.611C19.2566 13.3116 15.9871 16.7664 15.7727 16.9812C15.5048 17.2497 13.093 14.5646 12.2891 13.7591C11.4851 12.9536 12.5571 11.8796 13.093 11.8796Z" fill="white"/>
<path d="M31.0664 7.66895H35.6431C36.0239 7.66895 36.3582 7.70492 36.646 7.77686C36.938 7.8488 37.1898 7.94613 37.4014 8.06885C37.613 8.19157 37.7907 8.33333 37.9346 8.49414C38.0785 8.65495 38.1927 8.82422 38.2773 9.00195C38.362 9.17546 38.4212 9.35319 38.4551 9.53516C38.4932 9.71712 38.5122 9.89062 38.5122 10.0557C38.5122 10.2926 38.491 10.5063 38.4487 10.6968C38.4064 10.883 38.3387 11.0544 38.2456 11.2109C38.1567 11.3633 38.0382 11.5029 37.8901 11.6299C37.7463 11.7526 37.5728 11.8647 37.3696 11.9663C37.6828 12.0848 37.9346 12.2308 38.125 12.4043C38.3154 12.5778 38.4614 12.7661 38.563 12.9692C38.6646 13.1681 38.7323 13.3755 38.7661 13.5913C38.8 13.8029 38.8169 14.0081 38.8169 14.207C38.8169 14.6598 38.7344 15.0597 38.5693 15.4067C38.4043 15.7537 38.1715 16.0457 37.8711 16.2827C37.5706 16.5155 37.2046 16.6932 36.7729 16.8159C36.3455 16.9386 35.8695 17 35.3447 17H31.0664V7.66895ZM32.939 15.3877H35.3701C35.5859 15.3877 35.7848 15.3623 35.9668 15.3115C36.1488 15.2607 36.3053 15.1846 36.4365 15.083C36.5719 14.9772 36.6756 14.846 36.7476 14.6895C36.8237 14.5286 36.8618 14.3403 36.8618 14.1245C36.8618 13.8537 36.8174 13.6379 36.7285 13.4771C36.6396 13.312 36.5212 13.1851 36.373 13.0962C36.2292 13.0073 36.0641 12.9502 35.8779 12.9248C35.696 12.8952 35.5098 12.8804 35.3193 12.8804H32.939V15.3877ZM32.939 11.3442H35.3447C35.514 11.3442 35.6769 11.3252 35.8335 11.2871C35.9901 11.249 36.1276 11.1877 36.2461 11.103C36.3688 11.0142 36.4661 10.902 36.5381 10.7666C36.61 10.6312 36.646 10.4683 36.646 10.2778C36.646 10.0789 36.6121 9.91602 36.5444 9.78906C36.481 9.65788 36.3921 9.5542 36.2778 9.47803C36.1636 9.40186 36.0303 9.34896 35.8779 9.31934C35.7256 9.28971 35.5648 9.2749 35.3955 9.2749H32.939V11.3442ZM45.8438 15.6353C45.8438 15.8426 45.8543 16.014 45.8755 16.1494C45.9009 16.2806 45.9326 16.3864 45.9707 16.4668C46.0088 16.543 46.0511 16.6001 46.0977 16.6382C46.1484 16.672 46.2013 16.6974 46.2563 16.7144V17H44.2695C44.2357 16.9196 44.1976 16.8138 44.1553 16.6826C44.1172 16.5472 44.0981 16.3843 44.0981 16.1938C43.9585 16.3377 43.821 16.471 43.6855 16.5938C43.5544 16.7165 43.4062 16.8244 43.2412 16.9175C43.0762 17.0063 42.8857 17.0762 42.6699 17.127C42.4541 17.182 42.1938 17.2095 41.8892 17.2095C41.5802 17.2095 41.2946 17.1629 41.0322 17.0698C40.7741 16.981 40.5498 16.8477 40.3594 16.6699C40.1689 16.4922 40.0208 16.27 39.915 16.0034C39.8092 15.7368 39.7563 15.4279 39.7563 15.0767C39.7563 14.7931 39.8008 14.5308 39.8896 14.2896C39.9785 14.0441 40.1034 13.8304 40.2642 13.6484C40.4292 13.4622 40.6281 13.3099 40.8608 13.1914C41.0978 13.0687 41.3623 12.9862 41.6543 12.9438L43.4126 12.6836C43.4761 12.6751 43.5438 12.6624 43.6157 12.6455C43.6919 12.6286 43.7617 12.6011 43.8252 12.563C43.8887 12.5207 43.9416 12.4657 43.9839 12.3979C44.0262 12.326 44.0474 12.2308 44.0474 12.1123C44.0474 11.998 44.0283 11.8944 43.9902 11.8013C43.9564 11.7039 43.8971 11.6214 43.8125 11.5537C43.7279 11.4818 43.6136 11.4268 43.4697 11.3887C43.3301 11.3506 43.1545 11.3315 42.9429 11.3315C42.7017 11.3315 42.507 11.3569 42.3589 11.4077C42.215 11.4543 42.1007 11.522 42.0161 11.6108C41.9315 11.6955 41.8701 11.797 41.832 11.9155C41.7939 12.0298 41.7664 12.1525 41.7495 12.2837H39.9531C39.9531 12.1991 39.9658 12.0827 39.9912 11.9346C40.0208 11.7822 40.0716 11.6172 40.1436 11.4395C40.2197 11.2617 40.3234 11.0819 40.4546 10.8999C40.59 10.7179 40.7656 10.5529 40.9814 10.4048C41.2015 10.2524 41.4681 10.1276 41.7812 10.0303C42.0944 9.93294 42.4689 9.88216 42.9048 9.87793C43.5226 9.87793 44.022 9.94141 44.4028 10.0684C44.7879 10.1911 45.0863 10.354 45.2979 10.5571C45.5137 10.756 45.6576 10.9803 45.7295 11.23C45.8057 11.4754 45.8438 11.7209 45.8438 11.9663V15.6353ZM44.0474 13.623C43.9373 13.6823 43.8273 13.7373 43.7173 13.7881C43.6073 13.8346 43.4613 13.8748 43.2793 13.9087L42.8032 13.9976C42.5959 14.0356 42.4139 14.0801 42.2573 14.1309C42.1007 14.1816 41.9696 14.2493 41.8638 14.334C41.7622 14.4144 41.6839 14.5138 41.6289 14.6323C41.5781 14.7508 41.5527 14.8989 41.5527 15.0767C41.5527 15.2248 41.576 15.3538 41.6226 15.4639C41.6691 15.5697 41.7326 15.6585 41.813 15.7305C41.8976 15.7982 41.995 15.849 42.105 15.8828C42.215 15.9167 42.3335 15.9336 42.4604 15.9336C42.5282 15.9336 42.6149 15.9272 42.7207 15.9146C42.8265 15.8976 42.9386 15.868 43.0571 15.8257C43.1756 15.7834 43.2941 15.7262 43.4126 15.6543C43.5311 15.5781 43.6369 15.4808 43.73 15.3623C43.8231 15.2438 43.8993 15.0999 43.9585 14.9307C44.0177 14.7572 44.0474 14.554 44.0474 14.3213V13.623ZM52.9595 12.8296H53.3022L55.2002 10.0811H57.2505L54.9272 13.2803L57.3711 17H55.2002L53.3022 14.061H52.9595V17H51.1694V14.061H50.7759L48.8271 17H46.7324L49.189 13.2803L46.8911 10.0811H48.9478L50.833 12.8296H51.1694V10.0811H52.9595V12.8296ZM58.3296 10.0811H60.126V12.582H62.7666V10.0811H64.5566V17H62.7666V14.0356H60.126V17H58.3296V10.0811ZM65.8643 13.5405C65.8643 13.0073 65.9447 12.5164 66.1055 12.0679C66.2705 11.6193 66.5054 11.2342 66.8101 10.9126C67.119 10.5868 67.4914 10.3328 67.9272 10.1509C68.3631 9.96891 68.854 9.87793 69.3999 9.87793C69.9543 9.87793 70.4494 9.96891 70.8853 10.1509C71.3254 10.3328 71.6956 10.5868 71.9961 10.9126C72.3008 11.2342 72.5335 11.6193 72.6943 12.0679C72.8551 12.5164 72.9355 13.0073 72.9355 13.5405C72.9355 14.0737 72.8551 14.5646 72.6943 15.0132C72.5335 15.4618 72.3008 15.849 71.9961 16.1748C71.6956 16.5007 71.3254 16.7546 70.8853 16.9365C70.4494 17.1185 69.9543 17.2095 69.3999 17.2095C68.854 17.2095 68.3631 17.1185 67.9272 16.9365C67.4914 16.7546 67.119 16.5007 66.8101 16.1748C66.5054 15.849 66.2705 15.4618 66.1055 15.0132C65.9447 14.5646 65.8643 14.0737 65.8643 13.5405ZM67.7368 13.5405C67.7368 13.8029 67.7643 14.0632 67.8193 14.3213C67.8786 14.5752 67.9738 14.8037 68.105 15.0068C68.2362 15.2057 68.4076 15.3665 68.6191 15.4893C68.8307 15.612 69.091 15.6733 69.3999 15.6733C69.7215 15.6733 69.9881 15.6141 70.1997 15.4956C70.4155 15.3729 70.5869 15.2142 70.7139 15.0195C70.8408 14.8206 70.9297 14.5942 70.9805 14.3403C71.0355 14.0822 71.063 13.8156 71.063 13.5405C71.063 13.2697 71.0355 13.0052 70.9805 12.7471C70.9297 12.4889 70.8408 12.2625 70.7139 12.0679C70.5869 11.869 70.4155 11.7103 70.1997 11.5918C69.9881 11.4691 69.7215 11.4077 69.3999 11.4077C69.091 11.4077 68.8307 11.4691 68.6191 11.5918C68.4076 11.7145 68.2362 11.8774 68.105 12.0806C67.9738 12.2795 67.8786 12.508 67.8193 12.7661C67.7643 13.02 67.7368 13.2782 67.7368 13.5405Z" fill="#312E29"/>
</svg>
