<svg width="301" height="66" viewBox="0 0 301 66" fill="none" xmlns="http://www.w3.org/2000/svg">
<rect width="301" height="66" rx="30" fill="#FBFBFB"/>
<ellipse cx="46.2276" cy="32.6206" rx="20.5069" ry="19.7241" fill="#B1E30E"/>
<path d="M37.7966 28.2583C38.9889 28.2583 42.2676 31.9249 43.7579 33.7581L44.5026 34.5438L45.2478 33.7581L52.6994 25.9013C54.1898 24.3299 54.9349 22.7585 57.9156 22.7585C60.3001 22.7585 59.9027 25.9013 59.4059 27.4726C54.9349 32.4486 45.8439 42.5578 45.2478 43.1863C44.5026 43.972 37.7966 36.1152 35.5612 33.7581C33.3257 31.4011 36.3063 28.2583 37.7966 28.2583Z" fill="white"/>
<path d="M98.5557 21.4106H109.821C110.759 21.4106 111.582 21.4992 112.29 21.6763C113.009 21.8534 113.629 22.0929 114.149 22.395C114.67 22.6971 115.108 23.0461 115.462 23.4419C115.816 23.8377 116.097 24.2544 116.306 24.6919C116.514 25.119 116.66 25.5565 116.743 26.0044C116.837 26.4523 116.884 26.8794 116.884 27.2856C116.884 27.869 116.832 28.395 116.728 28.8638C116.623 29.3221 116.457 29.744 116.228 30.1294C116.009 30.5044 115.717 30.8481 115.353 31.1606C114.998 31.4627 114.571 31.7388 114.071 31.9888C114.842 32.2804 115.462 32.6398 115.931 33.0669C116.399 33.494 116.759 33.9575 117.009 34.4575C117.259 34.9471 117.425 35.4575 117.509 35.9888C117.592 36.5096 117.634 37.0148 117.634 37.5044C117.634 38.619 117.431 39.6034 117.024 40.4575C116.618 41.3117 116.045 42.0304 115.306 42.6138C114.566 43.1867 113.665 43.6242 112.603 43.9263C111.55 44.2284 110.379 44.3794 109.087 44.3794H98.5557V21.4106ZM103.165 40.4106H109.149C109.681 40.4106 110.17 40.3481 110.618 40.2231C111.066 40.0981 111.451 39.9106 111.774 39.6606C112.108 39.4002 112.363 39.0773 112.54 38.6919C112.728 38.2961 112.821 37.8325 112.821 37.3013C112.821 36.6346 112.712 36.1034 112.493 35.7075C112.274 35.3013 111.983 34.9888 111.618 34.77C111.264 34.5513 110.858 34.4106 110.399 34.3481C109.951 34.2752 109.493 34.2388 109.024 34.2388H103.165V40.4106ZM103.165 30.4575H109.087C109.504 30.4575 109.905 30.4106 110.29 30.3169C110.675 30.2231 111.014 30.0721 111.306 29.8638C111.608 29.645 111.847 29.369 112.024 29.0356C112.201 28.7023 112.29 28.3013 112.29 27.8325C112.29 27.3429 112.207 26.9419 112.04 26.6294C111.884 26.3065 111.665 26.0513 111.384 25.8638C111.103 25.6763 110.774 25.5461 110.399 25.4731C110.024 25.4002 109.629 25.3638 109.212 25.3638H103.165V30.4575ZM134.931 41.02C134.931 41.5304 134.957 41.9523 135.009 42.2856C135.071 42.6086 135.149 42.869 135.243 43.0669C135.337 43.2544 135.441 43.395 135.556 43.4888C135.681 43.5721 135.811 43.6346 135.946 43.6763V44.3794H131.056C130.972 44.1815 130.879 43.9211 130.774 43.5981C130.681 43.2648 130.634 42.8638 130.634 42.395C130.29 42.7492 129.951 43.0773 129.618 43.3794C129.295 43.6815 128.931 43.9471 128.524 44.1763C128.118 44.395 127.649 44.5669 127.118 44.6919C126.587 44.8273 125.946 44.895 125.196 44.895C124.436 44.895 123.733 44.7804 123.087 44.5513C122.451 44.3325 121.899 44.0044 121.431 43.5669C120.962 43.1294 120.597 42.5825 120.337 41.9263C120.076 41.27 119.946 40.5096 119.946 39.645C119.946 38.9471 120.056 38.3013 120.274 37.7075C120.493 37.1034 120.8 36.5773 121.196 36.1294C121.603 35.6711 122.092 35.2961 122.665 35.0044C123.248 34.7023 123.899 34.4992 124.618 34.395L128.946 33.7544C129.103 33.7336 129.269 33.7023 129.446 33.6606C129.634 33.619 129.806 33.5513 129.962 33.4575C130.118 33.3534 130.248 33.2179 130.353 33.0513C130.457 32.8742 130.509 32.6398 130.509 32.3481C130.509 32.0669 130.462 31.8117 130.368 31.5825C130.285 31.3429 130.139 31.1398 129.931 30.9731C129.722 30.7961 129.441 30.6606 129.087 30.5669C128.743 30.4731 128.311 30.4263 127.79 30.4263C127.196 30.4263 126.717 30.4888 126.353 30.6138C125.998 30.7284 125.717 30.895 125.509 31.1138C125.3 31.3221 125.149 31.5721 125.056 31.8638C124.962 32.145 124.894 32.4471 124.853 32.77H120.431C120.431 32.5617 120.462 32.2752 120.524 31.9106C120.597 31.5356 120.722 31.1294 120.899 30.6919C121.087 30.2544 121.342 29.8117 121.665 29.3638C121.998 28.9159 122.431 28.5096 122.962 28.145C123.504 27.77 124.16 27.4627 124.931 27.2231C125.701 26.9836 126.623 26.8586 127.696 26.8481C129.217 26.8481 130.446 27.0044 131.384 27.3169C132.332 27.619 133.066 28.02 133.587 28.52C134.118 29.0096 134.472 29.5617 134.649 30.1763C134.837 30.7804 134.931 31.3846 134.931 31.9888V41.02ZM130.509 36.0669C130.238 36.2127 129.967 36.3481 129.696 36.4731C129.425 36.5877 129.066 36.6867 128.618 36.77L127.446 36.9888C126.936 37.0825 126.488 37.1919 126.103 37.3169C125.717 37.4419 125.394 37.6086 125.134 37.8169C124.884 38.0148 124.691 38.2596 124.556 38.5513C124.431 38.8429 124.368 39.2075 124.368 39.645C124.368 40.0096 124.425 40.3273 124.54 40.5981C124.655 40.8586 124.811 41.0773 125.009 41.2544C125.217 41.4211 125.457 41.5461 125.728 41.6294C125.998 41.7127 126.29 41.7544 126.603 41.7544C126.769 41.7544 126.983 41.7388 127.243 41.7075C127.504 41.6659 127.78 41.5929 128.071 41.4888C128.363 41.3846 128.655 41.244 128.946 41.0669C129.238 40.8794 129.498 40.6398 129.728 40.3481C129.957 40.0565 130.144 39.7023 130.29 39.2856C130.436 38.8586 130.509 38.3586 130.509 37.7856V36.0669ZM152.446 34.1138H153.29L157.962 27.3481H163.009L157.29 35.2231L163.306 44.3794H157.962L153.29 37.145H152.446V44.3794H148.04V37.145H147.071L142.274 44.3794H137.118L143.165 35.2231L137.509 27.3481H142.571L147.212 34.1138H148.04V27.3481H152.446V34.1138ZM165.665 27.3481H170.087V33.5044H176.587V27.3481H180.993V44.3794H176.587V37.0825H170.087V44.3794H165.665V27.3481ZM184.212 35.8638C184.212 34.5513 184.41 33.3429 184.806 32.2388C185.212 31.1346 185.79 30.1867 186.54 29.395C187.3 28.5929 188.217 27.9679 189.29 27.52C190.363 27.0721 191.571 26.8481 192.915 26.8481C194.28 26.8481 195.498 27.0721 196.571 27.52C197.655 27.9679 198.566 28.5929 199.306 29.395C200.056 30.1867 200.629 31.1346 201.024 32.2388C201.42 33.3429 201.618 34.5513 201.618 35.8638C201.618 37.1763 201.42 38.3846 201.024 39.4888C200.629 40.5929 200.056 41.5461 199.306 42.3481C198.566 43.1502 197.655 43.7752 196.571 44.2231C195.498 44.6711 194.28 44.895 192.915 44.895C191.571 44.895 190.363 44.6711 189.29 44.2231C188.217 43.7752 187.3 43.1502 186.54 42.3481C185.79 41.5461 185.212 40.5929 184.806 39.4888C184.41 38.3846 184.212 37.1763 184.212 35.8638ZM188.821 35.8638C188.821 36.5096 188.889 37.1502 189.024 37.7856C189.17 38.4106 189.405 38.9731 189.728 39.4731C190.05 39.9627 190.472 40.3586 190.993 40.6606C191.514 40.9627 192.155 41.1138 192.915 41.1138C193.707 41.1138 194.363 40.9679 194.884 40.6763C195.415 40.3742 195.837 39.9836 196.149 39.5044C196.462 39.0148 196.681 38.4575 196.806 37.8325C196.941 37.1971 197.009 36.5409 197.009 35.8638C197.009 35.1971 196.941 34.5461 196.806 33.9106C196.681 33.2752 196.462 32.7179 196.149 32.2388C195.837 31.7492 195.415 31.3586 194.884 31.0669C194.363 30.7648 193.707 30.6138 192.915 30.6138C192.155 30.6138 191.514 30.7648 190.993 31.0669C190.472 31.369 190.05 31.77 189.728 32.27C189.405 32.7596 189.17 33.3221 189.024 33.9575C188.889 34.5825 188.821 35.2179 188.821 35.8638Z" fill="#4D4E50"/>
</svg>
