<svg width="107" height="97" viewBox="0 0 107 97" fill="none" xmlns="http://www.w3.org/2000/svg">
<rect x="0.117188" y="1.49268" width="99.2768" height="95.2738" rx="16.813" fill="#F9F9F6"/>
<path d="M99.394 30.7153H0.117188V13.1685C0.946222 3.46356 8.47662 0.60407 12.1382 0.387437C32.4495 0.315228 75.4349 0.214135 84.8859 0.387437C94.3369 0.560739 98.4959 8.98033 99.394 13.1685V30.7153Z" fill="#F35049"/>
<path d="M22.1678 27.1869V21.4755H23.7276C23.8918 21.1002 24.0443 20.721 24.185 20.3379C24.3257 19.947 24.4547 19.5091 24.572 19.0244C24.6971 18.5318 24.8105 17.9689 24.9121 17.3356C25.0216 16.7023 25.1232 15.9517 25.2171 15.0838C25.3265 14.1691 25.4125 13.2699 25.4751 12.3864C25.5376 11.4951 25.5845 10.6624 25.6158 9.8884C25.6549 9.11436 25.6783 8.4146 25.6862 7.78912C25.7018 7.16363 25.7135 6.65152 25.7213 6.25277H36.5579V21.4755H38.5047V27.1869H36.3468V23.4927H24.3257V27.1869H22.1678ZM27.8793 8.26996C27.8793 9.38801 27.8324 10.5022 27.7385 11.6124C27.6525 12.7226 27.547 13.8407 27.4219 14.9665C27.3359 15.8579 27.246 16.6163 27.1521 17.2417C27.0661 17.8594 26.9723 18.4106 26.8707 18.8954C26.7769 19.3723 26.6674 19.814 26.5423 20.2206C26.425 20.6194 26.2882 21.0377 26.1318 21.4755H34.1888V8.26996H27.8793ZM40.3577 6.25277H52.9416V8.26996H42.6563V13.5944H52.1441V15.6116H42.6563V21.4755H53.1058V23.4927H40.3577V6.25277ZM56.3779 6.25277H58.6765V14.6499L67.0854 6.25277H70.2988L63.1214 13.2074L70.4982 23.4927H67.5428L61.4678 14.8024L58.6765 17.488V23.4927H56.3779V6.25277ZM72.6678 20.936H75.1189V23.4927H72.6678V20.936Z" fill="white"/>
<path d="M22.0466 55.1742V51.29C25.7056 50.9335 28.2576 50.3424 29.7025 49.5167C31.1473 48.6723 32.2263 46.6927 32.9394 43.5778H36.9362V83.7151H31.532V55.1742H22.0466ZM64.2949 60.297C66.5279 60.297 68.273 59.6777 69.5302 58.4393C70.7874 57.1821 71.416 55.6903 71.416 53.9639C71.416 52.4628 70.8155 51.0836 69.6146 49.8264C68.4137 48.5691 66.5841 47.9405 64.126 47.9405C61.6866 47.9405 59.9227 48.5691 58.8344 49.8264C57.7461 51.0836 57.2019 52.5566 57.2019 54.2454C57.2019 56.1406 57.9056 57.623 59.3129 58.6926C60.7202 59.7622 62.3809 60.297 64.2949 60.297ZM64.6045 80.253C66.9501 80.253 68.8922 79.6244 70.4309 78.3672C71.9883 77.0912 72.7671 75.196 72.7671 72.6815C72.7671 70.0733 71.9696 68.0936 70.3746 66.7426C68.7796 65.3915 66.7343 64.716 64.2386 64.716C61.818 64.716 59.8383 65.4103 58.2996 66.7989C56.7797 68.1687 56.0197 70.0733 56.0197 72.5127C56.0197 74.6143 56.714 76.4345 58.1026 77.9731C59.5099 79.4931 61.6772 80.253 64.6045 80.253ZM57.3989 62.2391C55.9916 61.6386 54.8939 60.935 54.1057 60.1281C52.6233 58.6269 51.8821 56.6754 51.8821 54.2736C51.8821 51.2712 52.9705 48.6911 55.1472 46.5332C57.3239 44.3753 60.4106 43.2963 64.4075 43.2963C68.273 43.2963 71.3034 44.319 73.4989 46.3643C75.6943 48.3909 76.7921 50.7646 76.7921 53.4854C76.7921 55.9999 76.1541 58.0358 74.8781 59.5933C74.165 60.4752 73.0579 61.3384 71.5567 62.1828C73.2268 62.9521 74.5403 63.8341 75.4973 64.8286C77.2799 66.705 78.1712 69.1444 78.1712 72.1468C78.1712 75.6933 76.9797 78.705 74.5966 81.1819C72.2135 83.64 68.8453 84.8691 64.4919 84.8691C60.5701 84.8691 57.2488 83.8089 54.5279 81.6885C51.8259 79.5494 50.4748 76.4532 50.4748 72.4001C50.4748 70.017 51.0565 67.9623 52.2199 66.2359C53.3833 64.4908 55.1096 63.1586 57.3989 62.2391Z" fill="#383634"/>
</svg>
