<svg width="241" height="62" viewBox="0 0 241 62" fill="none" xmlns="http://www.w3.org/2000/svg">
<rect y="0.523682" width="241" height="60.7244" rx="28.4646" fill="#FBFBFB"/>
<ellipse cx="36.377" cy="32.1509" rx="15.9151" ry="16.4462" fill="#B1E30E"/>
<path d="M29.7683 30.5809C30.7432 30.5809 33.4241 33.7514 34.6426 35.3366L35.2516 36.0159L35.8608 35.3366L41.9537 28.5428C43.1723 27.1841 43.7816 25.8253 46.2188 25.8253C48.1685 25.8253 47.8435 28.5428 47.4373 29.9016C43.7816 34.2043 36.3483 42.9456 35.8608 43.4891C35.2516 44.1684 29.7683 37.3747 27.9405 35.3366C26.1126 33.2984 28.5498 30.5809 29.7683 30.5809Z" fill="white"/>
<path d="M79.5381 21.2377H89.5591C90.393 21.2377 91.125 21.3165 91.7551 21.474C92.3944 21.6315 92.9457 21.8446 93.409 22.1133C93.8723 22.382 94.2615 22.6924 94.5765 23.0445C94.8916 23.3966 95.1417 23.7673 95.3271 24.1564C95.5124 24.5363 95.6421 24.9255 95.7162 25.3239C95.7996 25.7224 95.8413 26.1023 95.8413 26.4636C95.8413 26.9825 95.795 27.4504 95.7023 27.8674C95.6097 28.2751 95.4614 28.6504 95.2576 28.9932C95.063 29.3268 94.8035 29.6325 94.4792 29.9105C94.1642 30.1792 93.7843 30.4248 93.3395 30.6471C94.0252 30.9066 94.5765 31.2263 94.9935 31.6062C95.4104 31.9861 95.7301 32.3984 95.9525 32.8431C96.1749 33.2786 96.3231 33.7327 96.3973 34.2052C96.4714 34.6685 96.5084 35.1179 96.5084 35.5534C96.5084 36.5448 96.3278 37.4204 95.9664 38.1802C95.605 38.94 95.0954 39.5794 94.4375 40.0983C93.7797 40.6079 92.9782 40.9971 92.0331 41.2658C91.0972 41.5345 90.0548 41.6688 88.9058 41.6688H79.5381V21.2377ZM83.6382 38.1385H88.9614C89.434 38.1385 89.8695 38.083 90.2679 37.9718C90.6663 37.8606 91.0092 37.6938 91.2964 37.4714C91.5929 37.2398 91.8199 36.9525 91.9775 36.6097C92.1442 36.2576 92.2276 35.8453 92.2276 35.3727C92.2276 34.7797 92.1303 34.3071 91.9358 33.955C91.7412 33.5937 91.4817 33.3157 91.1574 33.1211C90.8424 32.9265 90.481 32.8014 90.0733 32.7458C89.6749 32.681 89.2672 32.6486 88.8502 32.6486H83.6382V38.1385ZM83.6382 29.2851H88.9058C89.2765 29.2851 89.6332 29.2434 89.976 29.16C90.3189 29.0766 90.62 28.9422 90.8795 28.7569C91.1482 28.5623 91.3613 28.3168 91.5188 28.0203C91.6763 27.7238 91.7551 27.367 91.7551 26.9501C91.7551 26.5146 91.681 26.1579 91.5327 25.8799C91.3937 25.5926 91.1991 25.3656 90.949 25.1988C90.6988 25.0321 90.4069 24.9162 90.0733 24.8514C89.7398 24.7865 89.3877 24.7541 89.017 24.7541H83.6382V29.2851ZM111.894 38.6806C111.894 39.1346 111.917 39.5099 111.964 39.8064C112.019 40.0936 112.089 40.3253 112.172 40.5013C112.256 40.6681 112.348 40.7932 112.45 40.8766C112.561 40.9507 112.677 41.0063 112.798 41.0434V41.6688H108.447C108.373 41.4928 108.29 41.2611 108.197 40.9739C108.114 40.6774 108.072 40.3206 108.072 39.9037C107.766 40.2187 107.465 40.5106 107.169 40.7793C106.882 41.048 106.557 41.2843 106.196 41.4881C105.834 41.6827 105.418 41.8356 104.945 41.9468C104.472 42.0673 103.903 42.1275 103.235 42.1275C102.559 42.1275 101.934 42.0256 101.359 41.8217C100.794 41.6271 100.303 41.3353 99.8858 40.9461C99.4689 40.5569 99.1446 40.0705 98.9129 39.4867C98.6813 38.903 98.5655 38.2266 98.5655 37.4575C98.5655 36.8367 98.6627 36.2622 98.8573 35.7341C99.0519 35.1967 99.3252 34.7287 99.6773 34.3303C100.039 33.9226 100.474 33.589 100.984 33.3296C101.503 33.0609 102.082 32.8802 102.721 32.7875L106.571 32.2177C106.71 32.1992 106.858 32.1714 107.016 32.1343C107.183 32.0972 107.336 32.037 107.475 31.9536C107.614 31.861 107.729 31.7405 107.822 31.5923C107.915 31.4347 107.961 31.2263 107.961 30.9668C107.961 30.7166 107.919 30.4896 107.836 30.2858C107.762 30.0727 107.632 29.892 107.447 29.7437C107.261 29.5862 107.011 29.4658 106.696 29.3824C106.39 29.299 106.006 29.2573 105.543 29.2573C105.014 29.2573 104.588 29.3129 104.264 29.4241C103.949 29.526 103.699 29.6742 103.513 29.8688C103.328 30.0541 103.194 30.2765 103.11 30.536C103.027 30.7861 102.967 31.0548 102.93 31.3421H98.9963C98.9963 31.1568 99.0241 30.902 99.0797 30.5776C99.1446 30.2441 99.2558 29.8827 99.4133 29.4935C99.5801 29.1044 99.8071 28.7106 100.094 28.3122C100.391 27.9137 100.775 27.5524 101.248 27.2281C101.73 26.8945 102.313 26.6211 102.999 26.408C103.685 26.1949 104.505 26.0837 105.459 26.0745C106.812 26.0745 107.905 26.2135 108.739 26.4914C109.583 26.7601 110.236 27.1169 110.699 27.5616C111.172 27.9971 111.487 28.4882 111.644 29.0349C111.811 29.5723 111.894 30.1097 111.894 30.6471V38.6806ZM107.961 34.2747C107.72 34.4044 107.479 34.5249 107.238 34.6361C106.997 34.738 106.678 34.826 106.279 34.9001L105.237 35.0947C104.783 35.1781 104.384 35.2754 104.042 35.3866C103.699 35.4978 103.411 35.646 103.18 35.8314C102.957 36.0074 102.786 36.2252 102.666 36.4846C102.554 36.744 102.499 37.0683 102.499 37.4575C102.499 37.7818 102.55 38.0644 102.652 38.3053C102.754 38.537 102.893 38.7316 103.069 38.8891C103.254 39.0373 103.467 39.1485 103.708 39.2226C103.949 39.2968 104.208 39.3338 104.486 39.3338C104.635 39.3338 104.825 39.3199 105.056 39.2921C105.288 39.2551 105.533 39.1902 105.793 39.0976C106.052 39.0049 106.312 38.8798 106.571 38.7223C106.831 38.5555 107.062 38.3424 107.266 38.083C107.47 37.8235 107.637 37.5085 107.766 37.1378C107.896 36.7579 107.961 36.3132 107.961 35.8036V34.2747ZM127.475 32.5374H128.225L132.381 26.5192H136.87L131.783 33.5242L137.134 41.6688H132.381L128.225 35.2337H127.475V41.6688H123.555V35.2337H122.694L118.427 41.6688H113.84L119.219 33.5242L114.188 26.5192H118.691L122.819 32.5374H123.555V26.5192H127.475V32.5374ZM139.233 26.5192H143.166V31.9953H148.948V26.5192H152.868V41.6688H148.948V35.1781H143.166V41.6688H139.233V26.5192ZM155.731 34.094C155.731 32.9265 155.907 31.8517 156.259 30.8695C156.62 29.8873 157.135 29.0442 157.802 28.34C158.478 27.6265 159.294 27.0705 160.248 26.6721C161.202 26.2737 162.277 26.0745 163.472 26.0745C164.686 26.0745 165.77 26.2737 166.725 26.6721C167.688 27.0705 168.499 27.6265 169.157 28.34C169.824 29.0442 170.334 29.8873 170.686 30.8695C171.038 31.8517 171.214 32.9265 171.214 34.094C171.214 35.2615 171.038 36.3363 170.686 37.3185C170.334 38.3007 169.824 39.1485 169.157 39.862C168.499 40.5755 167.688 41.1314 166.725 41.5298C165.77 41.9283 164.686 42.1275 163.472 42.1275C162.277 42.1275 161.202 41.9283 160.248 41.5298C159.294 41.1314 158.478 40.5755 157.802 39.862C157.135 39.1485 156.62 38.3007 156.259 37.3185C155.907 36.3363 155.731 35.2615 155.731 34.094ZM159.831 34.094C159.831 34.6685 159.891 35.2384 160.012 35.8036C160.141 36.3595 160.35 36.8599 160.637 37.3046C160.924 37.7401 161.3 38.0922 161.763 38.3609C162.226 38.6296 162.796 38.764 163.472 38.764C164.177 38.764 164.76 38.6343 165.224 38.3748C165.696 38.1061 166.072 37.7587 166.349 37.3324C166.627 36.8969 166.822 36.4012 166.933 35.8453C167.054 35.28 167.114 34.6963 167.114 34.094C167.114 33.501 167.054 32.9219 166.933 32.3567C166.822 31.7915 166.627 31.2957 166.349 30.8695C166.072 30.434 165.696 30.0866 165.224 29.8271C164.76 29.5584 164.177 29.4241 163.472 29.4241C162.796 29.4241 162.226 29.5584 161.763 29.8271C161.3 30.0958 160.924 30.4526 160.637 30.8973C160.35 31.3328 160.141 31.8332 160.012 32.3984C159.891 32.9543 159.831 33.5195 159.831 34.094Z" fill="#4D4E50"/>
</svg>
