<svg width="224" height="52" viewBox="0 0 224 52" fill="none" xmlns="http://www.w3.org/2000/svg">
<rect width="224" height="52" rx="26" fill="#D61A17"/>
<path d="M30.582 20.2266H33.8984V24.8438H38.7734V20.2266H42.0781V33H38.7734V27.5273H33.8984V33H30.582V20.2266ZM55.5781 30.4805C55.5781 30.8633 55.5977 31.1797 55.6367 31.4297C55.6836 31.6719 55.7422 31.8672 55.8125 32.0156C55.8828 32.1562 55.9609 32.2617 56.0469 32.332C56.1406 32.3945 56.2383 32.4414 56.3398 32.4727V33H52.6719C52.6094 32.8516 52.5391 32.6562 52.4609 32.4141C52.3906 32.1641 52.3555 31.8633 52.3555 31.5117C52.0977 31.7773 51.8438 32.0234 51.5938 32.25C51.3516 32.4766 51.0781 32.6758 50.7734 32.8477C50.4688 33.0117 50.1172 33.1406 49.7188 33.2344C49.3203 33.3359 48.8398 33.3867 48.2773 33.3867C47.707 33.3867 47.1797 33.3008 46.6953 33.1289C46.2188 32.9648 45.8047 32.7188 45.4531 32.3906C45.1016 32.0625 44.8281 31.6523 44.6328 31.1602C44.4375 30.668 44.3398 30.0977 44.3398 29.4492C44.3398 28.9258 44.4219 28.4414 44.5859 27.9961C44.75 27.543 44.9805 27.1484 45.2773 26.8125C45.582 26.4688 45.9492 26.1875 46.3789 25.9688C46.8164 25.7422 47.3047 25.5898 47.8438 25.5117L51.0898 25.0312C51.207 25.0156 51.332 24.9922 51.4648 24.9609C51.6055 24.9297 51.7344 24.8789 51.8516 24.8086C51.9688 24.7305 52.0664 24.6289 52.1445 24.5039C52.2227 24.3711 52.2617 24.1953 52.2617 23.9766C52.2617 23.7656 52.2266 23.5742 52.1562 23.4023C52.0938 23.2227 51.9844 23.0703 51.8281 22.9453C51.6719 22.8125 51.4609 22.7109 51.1953 22.6406C50.9375 22.5703 50.6133 22.5352 50.2227 22.5352C49.7773 22.5352 49.418 22.582 49.1445 22.6758C48.8789 22.7617 48.668 22.8867 48.5117 23.0508C48.3555 23.207 48.2422 23.3945 48.1719 23.6133C48.1016 23.8242 48.0508 24.0508 48.0195 24.293H44.7031C44.7031 24.1367 44.7266 23.9219 44.7734 23.6484C44.8281 23.3672 44.9219 23.0625 45.0547 22.7344C45.1953 22.4062 45.3867 22.0742 45.6289 21.7383C45.8789 21.4023 46.2031 21.0977 46.6016 20.8242C47.0078 20.543 47.5 20.3125 48.0781 20.1328C48.6562 19.9531 49.3477 19.8594 50.1523 19.8516C51.293 19.8516 52.2148 19.9688 52.918 20.2031C53.6289 20.4297 54.1797 20.7305 54.5703 21.1055C54.9688 21.4727 55.2344 21.8867 55.3672 22.3477C55.5078 22.8008 55.5781 23.2539 55.5781 23.707V30.4805ZM52.2617 26.7656C52.0586 26.875 51.8555 26.9766 51.6523 27.0703C51.4492 27.1562 51.1797 27.2305 50.8438 27.293L49.9648 27.457C49.582 27.5273 49.2461 27.6094 48.957 27.7031C48.668 27.7969 48.4258 27.9219 48.2305 28.0781C48.043 28.2266 47.8984 28.4102 47.7969 28.6289C47.7031 28.8477 47.6562 29.1211 47.6562 29.4492C47.6562 29.7227 47.6992 29.9609 47.7852 30.1641C47.8711 30.3594 47.9883 30.5234 48.1367 30.6562C48.293 30.7812 48.4727 30.875 48.6758 30.9375C48.8789 31 49.0977 31.0312 49.332 31.0312C49.457 31.0312 49.6172 31.0195 49.8125 30.9961C50.0078 30.9648 50.2148 30.9102 50.4336 30.832C50.6523 30.7539 50.8711 30.6484 51.0898 30.5156C51.3086 30.375 51.5039 30.1953 51.6758 29.9766C51.8477 29.7578 51.9883 29.4922 52.0977 29.1797C52.207 28.8594 52.2617 28.4844 52.2617 28.0547V26.7656ZM58.6133 20.2266H70.1094V33H66.8047V22.9219H61.9297V33H58.6133V20.2266ZM73.2852 20.2266H76.6016V28.1016H76.6484L81.3008 20.2266H84.7812V33H81.4766V25.3008H81.418L76.9062 33H73.2852V20.2266ZM95.4453 24.7383C95.3828 24.4023 95.2969 24.1094 95.1875 23.8594C95.0781 23.6016 94.9336 23.3867 94.7539 23.2148C94.582 23.0352 94.3672 22.9023 94.1094 22.8164C93.8594 22.7227 93.5547 22.6758 93.1953 22.6758C92.6406 22.6758 92.1953 22.8047 91.8594 23.0625C91.5312 23.3203 91.2773 23.6445 91.0977 24.0352C90.918 24.4258 90.7969 24.8516 90.7344 25.3125C90.6797 25.7734 90.6523 26.207 90.6523 26.6133C90.6523 27.0352 90.6758 27.4805 90.7227 27.9492C90.7695 28.4102 90.8789 28.8359 91.0508 29.2266C91.2227 29.6094 91.4766 29.9258 91.8125 30.1758C92.1484 30.4258 92.6094 30.5508 93.1953 30.5508C93.5781 30.5508 93.9102 30.4766 94.1914 30.3281C94.4727 30.1719 94.707 29.9805 94.8945 29.7539C95.082 29.5273 95.2188 29.2852 95.3047 29.0273C95.3984 28.7695 95.4453 28.5352 95.4453 28.3242H98.9023C98.9023 28.5352 98.8633 28.8086 98.7852 29.1445C98.7148 29.4805 98.5938 29.8359 98.4219 30.2109C98.25 30.5859 98.0195 30.9648 97.7305 31.3477C97.4492 31.7227 97.0938 32.0625 96.6641 32.3672C96.2422 32.6641 95.7461 32.9062 95.1758 33.0938C94.6055 33.2891 93.9453 33.3867 93.1953 33.3867C92.2188 33.3867 91.3555 33.2383 90.6055 32.9414C89.8633 32.6445 89.2383 32.2109 88.7305 31.6406C88.2305 31.0625 87.8477 30.3516 87.582 29.5078C87.3242 28.6641 87.1953 27.6992 87.1953 26.6133C87.1953 25.5273 87.3359 24.5664 87.6172 23.7305C87.9062 22.8867 88.3125 22.1797 88.8359 21.6094C89.3594 21.0312 89.9883 20.5938 90.7227 20.2969C91.4648 20 92.2891 19.8516 93.1953 19.8516C93.5859 19.8516 93.9883 19.8828 94.4023 19.9453C94.8242 20.0078 95.2383 20.1172 95.6445 20.2734C96.0508 20.4219 96.4375 20.6172 96.8047 20.8594C97.1797 21.1016 97.5117 21.4062 97.8008 21.7734C98.0977 22.1328 98.3398 22.5586 98.5273 23.0508C98.7227 23.5352 98.8477 24.0977 98.9023 24.7383H95.4453ZM111.641 30.4805C111.641 30.8633 111.66 31.1797 111.699 31.4297C111.746 31.6719 111.805 31.8672 111.875 32.0156C111.945 32.1562 112.023 32.2617 112.109 32.332C112.203 32.3945 112.301 32.4414 112.402 32.4727V33H108.734C108.672 32.8516 108.602 32.6562 108.523 32.4141C108.453 32.1641 108.418 31.8633 108.418 31.5117C108.16 31.7773 107.906 32.0234 107.656 32.25C107.414 32.4766 107.141 32.6758 106.836 32.8477C106.531 33.0117 106.18 33.1406 105.781 33.2344C105.383 33.3359 104.902 33.3867 104.34 33.3867C103.77 33.3867 103.242 33.3008 102.758 33.1289C102.281 32.9648 101.867 32.7188 101.516 32.3906C101.164 32.0625 100.891 31.6523 100.695 31.1602C100.5 30.668 100.402 30.0977 100.402 29.4492C100.402 28.9258 100.484 28.4414 100.648 27.9961C100.812 27.543 101.043 27.1484 101.34 26.8125C101.645 26.4688 102.012 26.1875 102.441 25.9688C102.879 25.7422 103.367 25.5898 103.906 25.5117L107.152 25.0312C107.27 25.0156 107.395 24.9922 107.527 24.9609C107.668 24.9297 107.797 24.8789 107.914 24.8086C108.031 24.7305 108.129 24.6289 108.207 24.5039C108.285 24.3711 108.324 24.1953 108.324 23.9766C108.324 23.7656 108.289 23.5742 108.219 23.4023C108.156 23.2227 108.047 23.0703 107.891 22.9453C107.734 22.8125 107.523 22.7109 107.258 22.6406C107 22.5703 106.676 22.5352 106.285 22.5352C105.84 22.5352 105.48 22.582 105.207 22.6758C104.941 22.7617 104.73 22.8867 104.574 23.0508C104.418 23.207 104.305 23.3945 104.234 23.6133C104.164 23.8242 104.113 24.0508 104.082 24.293H100.766C100.766 24.1367 100.789 23.9219 100.836 23.6484C100.891 23.3672 100.984 23.0625 101.117 22.7344C101.258 22.4062 101.449 22.0742 101.691 21.7383C101.941 21.4023 102.266 21.0977 102.664 20.8242C103.07 20.543 103.562 20.3125 104.141 20.1328C104.719 19.9531 105.41 19.8594 106.215 19.8516C107.355 19.8516 108.277 19.9688 108.98 20.2031C109.691 20.4297 110.242 20.7305 110.633 21.1055C111.031 21.4727 111.297 21.8867 111.43 22.3477C111.57 22.8008 111.641 23.2539 111.641 23.707V30.4805ZM108.324 26.7656C108.121 26.875 107.918 26.9766 107.715 27.0703C107.512 27.1562 107.242 27.2305 106.906 27.293L106.027 27.457C105.645 27.5273 105.309 27.6094 105.02 27.7031C104.73 27.7969 104.488 27.9219 104.293 28.0781C104.105 28.2266 103.961 28.4102 103.859 28.6289C103.766 28.8477 103.719 29.1211 103.719 29.4492C103.719 29.7227 103.762 29.9609 103.848 30.1641C103.934 30.3594 104.051 30.5234 104.199 30.6562C104.355 30.7812 104.535 30.875 104.738 30.9375C104.941 31 105.16 31.0312 105.395 31.0312C105.52 31.0312 105.68 31.0195 105.875 30.9961C106.07 30.9648 106.277 30.9102 106.496 30.832C106.715 30.7539 106.934 30.6484 107.152 30.5156C107.371 30.375 107.566 30.1953 107.738 29.9766C107.91 29.7578 108.051 29.4922 108.16 29.1797C108.27 28.8594 108.324 28.4844 108.324 28.0547V26.7656ZM117.441 22.9219H113.574V20.2266H124.613V22.9219H120.746V33H117.441V22.9219ZM126.652 20.2266H129.969V24.668H133.355C134.145 24.668 134.848 24.75 135.465 24.9141C136.09 25.0781 136.617 25.332 137.047 25.6758C137.477 26.0195 137.805 26.457 138.031 26.9883C138.258 27.5117 138.371 28.1328 138.371 28.8516C138.371 29.5 138.277 30.0547 138.09 30.5156C137.902 30.9766 137.66 31.3633 137.363 31.6758C137.074 31.9805 136.75 32.2227 136.391 32.4023C136.031 32.5742 135.68 32.707 135.336 32.8008C134.992 32.8867 134.672 32.9414 134.375 32.9648C134.086 32.9883 133.863 33 133.707 33H126.652V20.2266ZM129.969 30.5039H132.77C133.027 30.5039 133.281 30.4844 133.531 30.4453C133.789 30.3984 134.02 30.3164 134.223 30.1992C134.434 30.0742 134.602 29.9062 134.727 29.6953C134.852 29.4766 134.914 29.1953 134.914 28.8516C134.914 28.5156 134.848 28.2383 134.715 28.0195C134.59 27.8008 134.414 27.6289 134.188 27.5039C133.969 27.3789 133.711 27.293 133.414 27.2461C133.125 27.1914 132.816 27.1641 132.488 27.1641H129.969V30.5039Z" fill="#E6E7EB"/>
<ellipse cx="191.72" cy="26" rx="15.6507" ry="14.1404" fill="black"/>
<path d="M185.852 18.2456L197.59 33.2982" stroke="white" stroke-width="2"/>
<path d="M198.387 18.2456L186.264 33.0305" stroke="white" stroke-width="2"/>
</svg>
