<svg width="112" height="111" viewBox="0 0 112 111" fill="none" xmlns="http://www.w3.org/2000/svg">
<rect width="111.342" height="111" rx="16.3938" fill="#F9F9F6"/>
<path d="M69.8449 38.423L80.091 28.3476C80.091 27.323 65.7464 16.5646 49.1818 19.4676C35.9301 21.7901 26.5833 33.5276 23.5664 39.1061L35.5203 48.1569C38.2526 42.1458 43.3756 37.7969 45.5956 36.3738C52.0166 30.6359 64.4372 35.3492 69.8449 38.423Z" fill="#E12D2D"/>
<path d="M35.349 48.157L23.5659 39.1062C21.3459 44.9124 20.6628 46.1077 19.809 54.6462C19.1259 61.477 21.9151 68.9908 23.3951 71.8939L35.349 62.16C34.2561 57.3785 34.8936 50.8324 35.349 48.157Z" fill="#E196A4"/>
<path d="M35.3494 62.3308L23.3955 71.8939C25.5814 78.4514 35.3494 85.6693 39.9601 88.4585C46.7909 92.0447 55.1586 91.5323 62.8432 91.1908C68.9909 90.9176 76.4478 86.0677 79.4078 83.677L67.7955 74.4554C63.9703 77.5976 57.777 77.8139 55.1586 77.5293C42.9998 77.1194 36.8863 67.2262 35.3494 62.3308Z" fill="#56B34E"/>
<path d="M79.2368 83.5061L67.7953 74.4553C69.0476 73.1461 71.9962 70.0153 73.7722 67.9661C75.5482 65.9169 75.6507 63.3553 75.4799 62.3307H56.0122V48.6692H90.1661C90.2799 51.1169 90.3027 57.9932 89.483 65.9169C88.6633 73.8406 82.3107 80.9446 79.2368 83.5061Z" fill="#316FC2"/>
</svg>
