<svg width="180" height="158" viewBox="0 0 180 158" fill="none" xmlns="http://www.w3.org/2000/svg">
<g filter="url(#filter0_d_239_67)">
<rect x="4" y="1.86719" width="160.274" height="148.133" rx="37" fill="#F9F9F6"/>
<path d="M164.274 47.3029H4V20.0209C5.33841 4.93157 17.4956 0.485602 23.4069 0.148778C56.1979 0.0365067 125.594 -0.120674 140.852 0.148778C156.11 0.418231 162.824 13.5091 164.274 20.0209V47.3029Z" fill="#F35049"/>
<path d="M42.6504 40.5371V31.9766H44.9883C45.2344 31.4141 45.4629 30.8457 45.6738 30.2715C45.8848 29.6855 46.0781 29.0293 46.2539 28.3027C46.4414 27.5645 46.6113 26.7207 46.7637 25.7715C46.9277 24.8223 47.0801 23.6973 47.2207 22.3965C47.3848 21.0254 47.5137 19.6777 47.6074 18.3535C47.7012 17.0176 47.7715 15.7695 47.8184 14.6094C47.877 13.4492 47.9121 12.4004 47.9238 11.4629C47.9473 10.5254 47.9648 9.75781 47.9766 9.16016H64.2188V31.9766H67.1367V40.5371H63.9023V35H45.8848V40.5371H42.6504ZM51.2109 12.1836C51.2109 13.8594 51.1406 15.5293 51 17.1934C50.8711 18.8574 50.7129 20.5332 50.5254 22.2207C50.3965 23.5566 50.2617 24.6934 50.1211 25.6309C49.9922 26.5566 49.8516 27.3828 49.6992 28.1094C49.5586 28.8242 49.3945 29.4863 49.207 30.0957C49.0312 30.6934 48.8262 31.3203 48.5918 31.9766H60.668V12.1836H51.2109ZM69.9141 9.16016H88.7754V12.1836H73.3594V20.1641H87.5801V23.1875H73.3594V31.9766H89.0215V35H69.9141V9.16016ZM93.9258 9.16016H97.3711V21.7461L109.975 9.16016H114.791L104.033 19.584L115.09 35H110.66L101.555 21.9746L97.3711 26V35H93.9258V9.16016ZM118.342 31.168H122.016V35H118.342V31.168Z" fill="white"/>
<path d="M43.2305 83.4199V77.625C48.6895 77.0931 52.4967 76.2113 54.6523 74.9795C56.8079 73.7197 58.4176 70.7663 59.4814 66.1191H65.4443V126H57.3818V83.4199H43.2305ZM106.261 91.0625C109.592 91.0625 112.196 90.1387 114.071 88.291C115.947 86.4154 116.885 84.1898 116.885 81.6143C116.885 79.3747 115.989 77.3171 114.197 75.4414C112.406 73.5658 109.676 72.6279 106.009 72.6279C102.369 72.6279 99.738 73.5658 98.1143 75.4414C96.4906 77.3171 95.6787 79.5146 95.6787 82.0342C95.6787 84.8617 96.7285 87.0732 98.8281 88.6689C100.928 90.2646 103.405 91.0625 106.261 91.0625ZM106.723 120.835C110.222 120.835 113.119 119.897 115.415 118.021C117.739 116.118 118.9 113.29 118.9 109.539C118.9 105.648 117.711 102.694 115.331 100.679C112.951 98.6631 109.9 97.6553 106.177 97.6553C102.565 97.6553 99.612 98.6911 97.3164 100.763C95.0488 102.806 93.915 105.648 93.915 109.287C93.915 112.423 94.9508 115.138 97.0225 117.434C99.1221 119.701 102.355 120.835 106.723 120.835ZM95.9727 93.96C93.873 93.0641 92.2354 92.0143 91.0596 90.8105C88.848 88.571 87.7422 85.6595 87.7422 82.0762C87.7422 77.597 89.3659 73.7477 92.6133 70.5283C95.8607 67.3089 100.466 65.6992 106.429 65.6992C112.196 65.6992 116.717 67.2249 119.992 70.2764C123.268 73.2998 124.905 76.8411 124.905 80.9004C124.905 84.6517 123.953 87.6891 122.05 90.0127C120.986 91.3285 119.334 92.6162 117.095 93.876C119.586 95.0238 121.546 96.3395 122.974 97.8232C125.633 100.623 126.963 104.262 126.963 108.741C126.963 114.032 125.185 118.525 121.63 122.221C118.075 125.888 113.049 127.722 106.555 127.722C100.704 127.722 95.7487 126.14 91.6895 122.977C87.6582 119.785 85.6426 115.166 85.6426 109.119C85.6426 105.564 86.5104 102.498 88.2461 99.9229C89.9818 97.3193 92.5573 95.3317 95.9727 93.96Z" fill="#383634"/>
</g>
<defs>
<filter id="filter0_d_239_67" x="0" y="0" width="168.274" height="158" filterUnits="userSpaceOnUse" color-interpolation-filters="sRGB">
<feFlood flood-opacity="0" result="BackgroundImageFix"/>
<feColorMatrix in="SourceAlpha" type="matrix" values="0 0 0 0 0 0 0 0 0 0 0 0 0 0 0 0 0 0 127 0" result="hardAlpha"/>
<feOffset dy="4"/>
<feGaussianBlur stdDeviation="2"/>
<feComposite in2="hardAlpha" operator="out"/>
<feColorMatrix type="matrix" values="0 0 0 0 0 0 0 0 0 0 0 0 0 0 0 0 0 0 0.25 0"/>
<feBlend mode="normal" in2="BackgroundImageFix" result="effect1_dropShadow_239_67"/>
<feBlend mode="normal" in="SourceGraphic" in2="effect1_dropShadow_239_67" result="shape"/>
</filter>
</defs>
</svg>
