<svg width="323" height="105" viewBox="0 0 323 105" fill="none" xmlns="http://www.w3.org/2000/svg">
<path fill-rule="evenodd" clip-rule="evenodd" d="M33.65 0C15.0656 0 0 15.0656 0 33.65C0 52.2344 15.0656 67.3 33.65 67.3H159.687L174.219 87.7827L189.332 67.3H228.545C247.129 67.3 262.195 52.2344 262.195 33.65C262.195 15.0656 247.129 0 228.545 0H33.65Z" fill="#0FA821"/>
<path d="M45.4614 23.4922H59.4302V40.7188H55.8325V26.457H49.0708V40.7188H45.4614V23.4922ZM62.6177 27.9453H65.7817V29.7734H65.8286C66.0552 29.3906 66.2935 29.0625 66.5435 28.7891C66.7935 28.5078 67.0708 28.2773 67.3755 28.0977C67.6802 27.918 68.0161 27.7852 68.3833 27.6992C68.7583 27.6133 69.1802 27.5703 69.6489 27.5703C70.0396 27.5703 70.4419 27.6172 70.856 27.7109C71.27 27.8047 71.6724 27.957 72.063 28.168C72.4614 28.3711 72.8364 28.6406 73.188 28.9766C73.5396 29.3047 73.8481 29.7109 74.1138 30.1953C74.3794 30.6797 74.5903 31.2461 74.7466 31.8945C74.9028 32.5352 74.981 33.2695 74.981 34.0977C74.981 35.1289 74.8677 36.0742 74.6411 36.9336C74.4224 37.793 74.0864 38.5312 73.6333 39.1484C73.188 39.7656 72.6216 40.2461 71.9341 40.5898C71.2544 40.9336 70.4536 41.1055 69.5317 41.1055C69.2114 41.1055 68.8872 41.0742 68.5591 41.0117C68.231 40.9492 67.9106 40.8438 67.5981 40.6953C67.2856 40.5469 66.9888 40.3477 66.7075 40.0977C66.4341 39.8398 66.1919 39.5195 65.981 39.1367H65.9341V45.6641H62.6177V27.9453ZM68.6646 30.5469C68.1333 30.5469 67.6841 30.6602 67.3169 30.8867C66.9575 31.1133 66.6646 31.4062 66.438 31.7656C66.2192 32.125 66.0591 32.5312 65.9575 32.9844C65.856 33.4375 65.8052 33.8867 65.8052 34.332C65.8052 34.5742 65.8169 34.8398 65.8403 35.1289C65.8716 35.4102 65.9263 35.6992 66.0044 35.9961C66.0825 36.2852 66.188 36.5664 66.3208 36.8398C66.4614 37.1133 66.6372 37.3555 66.8481 37.5664C67.0591 37.7773 67.313 37.9492 67.6099 38.082C67.9067 38.207 68.2583 38.2695 68.6646 38.2695C69.0708 38.2695 69.4224 38.207 69.7192 38.082C70.0161 37.9492 70.27 37.7773 70.481 37.5664C70.6919 37.3555 70.8638 37.1133 70.9966 36.8398C71.1372 36.5664 71.2466 36.2852 71.3247 35.9961C71.4028 35.6992 71.4536 35.4102 71.4771 35.1289C71.5083 34.8398 71.5239 34.5742 71.5239 34.332C71.5239 33.8867 71.4731 33.4375 71.3716 32.9844C71.27 32.5312 71.106 32.125 70.8794 31.7656C70.6606 31.4062 70.3677 31.1133 70.0005 30.8867C69.6333 30.6602 69.188 30.5469 68.6646 30.5469ZM77.3833 27.9453H80.6997V35.8203H80.7466L85.3989 27.9453H88.8794V40.7188H85.5747V33.0195H85.5161L81.0044 40.7188H77.3833V27.9453ZM95.4653 32.9609H98.02C98.395 32.9609 98.7075 32.9336 98.9575 32.8789C99.2075 32.8164 99.4028 32.7305 99.5435 32.6211C99.6919 32.5039 99.7935 32.3633 99.8481 32.1992C99.9106 32.0273 99.9419 31.8281 99.9419 31.6016C99.9419 31.4141 99.9106 31.2422 99.8481 31.0859C99.7935 30.9219 99.6958 30.7852 99.5552 30.6758C99.4146 30.5586 99.2271 30.4688 98.9927 30.4062C98.7583 30.3359 98.4653 30.3008 98.1138 30.3008H95.4653V32.9609ZM92.1489 27.9453H98.7583C99.3442 27.9453 99.9067 27.9961 100.446 28.0977C100.993 28.1992 101.473 28.3789 101.887 28.6367C102.301 28.8867 102.629 29.2305 102.872 29.668C103.122 30.0977 103.247 30.6445 103.247 31.3086C103.247 31.6914 103.204 32.0234 103.118 32.3047C103.04 32.5859 102.93 32.8281 102.79 33.0312C102.649 33.2266 102.485 33.3945 102.297 33.5352C102.118 33.668 101.93 33.7812 101.735 33.875C102.375 34.1016 102.864 34.4648 103.2 34.9648C103.536 35.457 103.704 36.0469 103.704 36.7344C103.704 37.3359 103.598 37.8828 103.387 38.375C103.184 38.8594 102.891 39.2773 102.508 39.6289C102.133 39.9727 101.672 40.2422 101.125 40.4375C100.586 40.625 99.981 40.7188 99.3091 40.7188H92.1489V27.9453ZM95.4653 38.3633H98.02C98.4966 38.3633 98.8794 38.3125 99.1685 38.2109C99.4653 38.1094 99.6919 37.9805 99.8481 37.8242C100.012 37.668 100.118 37.4961 100.165 37.3086C100.219 37.1211 100.247 36.9453 100.247 36.7812C100.247 36.4688 100.204 36.2109 100.118 36.0078C100.04 35.7969 99.9106 35.6289 99.731 35.5039C99.5591 35.3789 99.3286 35.293 99.0396 35.2461C98.7583 35.1992 98.4185 35.1758 98.02 35.1758H95.4653V38.3633ZM108.754 35.3633C108.754 35.4805 108.766 35.6367 108.79 35.832C108.813 36.0273 108.86 36.2383 108.93 36.4648C109 36.6914 109.102 36.9219 109.235 37.1562C109.368 37.3828 109.543 37.5898 109.762 37.7773C109.989 37.9648 110.262 38.1172 110.583 38.2344C110.911 38.3516 111.301 38.4102 111.754 38.4102C111.989 38.4102 112.219 38.3789 112.446 38.3164C112.68 38.2461 112.895 38.1484 113.09 38.0234C113.286 37.8906 113.454 37.7344 113.594 37.5547C113.743 37.3672 113.848 37.1562 113.911 36.9219H117.344C117.344 37.1562 117.293 37.4258 117.192 37.7305C117.09 38.0273 116.934 38.332 116.723 38.6445C116.52 38.9492 116.262 39.25 115.95 39.5469C115.637 39.8438 115.266 40.1094 114.836 40.3438C114.407 40.5703 113.918 40.7539 113.372 40.8945C112.833 41.0352 112.231 41.1055 111.567 41.1055C110.715 41.1055 109.915 40.9766 109.165 40.7188C108.422 40.4688 107.77 40.0703 107.208 39.5234C106.653 38.9688 106.215 38.2539 105.895 37.3789C105.575 36.5039 105.415 35.4414 105.415 34.1914C105.415 33.3242 105.528 32.4922 105.754 31.6953C105.989 30.8906 106.348 30.1836 106.833 29.5742C107.325 28.9648 107.95 28.4805 108.708 28.1211C109.473 27.7539 110.391 27.5703 111.461 27.5703C112.594 27.5703 113.547 27.7578 114.321 28.1328C115.094 28.5 115.715 29.0234 116.184 29.7031C116.661 30.3828 117 31.2031 117.204 32.1641C117.407 33.125 117.508 34.1914 117.508 35.3633H108.754ZM114.063 33.1602C114.063 32.5977 113.977 32.1289 113.805 31.7539C113.641 31.3789 113.43 31.082 113.172 30.8633C112.922 30.6367 112.645 30.4805 112.34 30.3945C112.036 30.3008 111.743 30.2539 111.461 30.2539C111.188 30.2539 110.899 30.3008 110.594 30.3945C110.29 30.4805 110.008 30.6367 109.75 30.8633C109.5 31.082 109.29 31.3789 109.118 31.7539C108.954 32.1289 108.872 32.5977 108.872 33.1602H114.063ZM122.5 30.6406H118.633V27.9453H129.672V30.6406H125.805V40.7188H122.5V30.6406ZM131.653 37.2266H135.204V40.7188H131.653V37.2266ZM138.333 37.2266H141.883V40.7188H138.333V37.2266ZM145.012 37.2266H148.563V40.7188H145.012V37.2266Z" fill="white"/>
</svg>
