<svg width="156" height="155" viewBox="0 0 156 155" fill="none" xmlns="http://www.w3.org/2000/svg">
<rect width="155.477" height="155" rx="22.8923" fill="#F9F9F6"/>
<path d="M97.5313 53.6538L111.839 39.5845C111.839 38.1538 91.8082 23.1307 68.6774 27.1845C50.1728 30.4276 37.121 46.8179 32.9082 54.6076L49.6005 67.2461C53.4159 58.8522 60.5697 52.7794 63.6697 50.7922C72.6359 42.7799 89.98 49.3615 97.5313 53.6538Z" fill="#E12D2D"/>
<path d="M49.361 67.2461L32.9072 54.6077C29.8072 62.7154 28.8533 64.3846 27.661 76.3077C26.7072 85.8461 30.602 96.3384 32.6687 100.392L49.361 86.8C47.8349 80.123 48.7251 70.982 49.361 67.2461Z" fill="#E196A4"/>
<path d="M49.3617 87.0386L32.6694 100.392C35.7217 109.549 49.3617 119.628 55.8002 123.523C65.3387 128.531 77.0233 127.815 87.754 127.339C96.3387 126.957 106.751 120.185 110.885 116.846L94.6694 103.969C89.3279 108.357 80.6797 108.659 77.0233 108.262C60.0448 107.689 51.5079 93.8745 49.3617 87.0386Z" fill="#56B34E"/>
<path d="M110.646 116.608L94.6692 103.969C96.4179 102.141 100.535 97.7691 103.015 94.9076C105.495 92.046 105.638 88.4691 105.4 87.0383H78.2153V67.9614H125.908C126.067 71.3794 126.098 80.9814 124.954 92.046C123.809 103.111 114.938 113.031 110.646 116.608Z" fill="#316FC2"/>
</svg>
