<svg width="135" height="133" viewBox="0 0 135 133" fill="none" xmlns="http://www.w3.org/2000/svg">
<path d="M29.4447 0.153158C8.41278 0.430541 1.0516 17.3741 0 25.8111L0.350533 107.639C3.99607 129.275 19.3961 133.528 26.6405 132.951H108.315C125.421 132.951 132.969 117.232 134.605 109.373V33.4392C138.25 7.9199 115.793 0.615465 104.108 0.153158C87.9837 0.0375813 50.4767 -0.124226 29.4447 0.153158Z" fill="#312E29"/>
<path d="M125.693 66.2254C125.693 97.9235 99.7129 123.629 67.6537 123.629C35.5945 123.629 9.61475 97.9235 9.61475 66.2254C9.61475 34.5272 35.5945 8.82153 67.6537 8.82153C99.7129 8.82153 125.693 34.5272 125.693 66.2254Z" fill="#E6E1DD" stroke="#E5E5E5"/>
<ellipse cx="67.6527" cy="19.0701" rx="3.85586" ry="3.81403" fill="#312E29"/>
<ellipse cx="115.326" cy="66.2256" rx="3.85586" ry="3.81403" fill="#231E1A"/>
<path d="M71.0086 112.687C71.0086 114.512 69.5113 116.001 67.6527 116.001C65.7942 116.001 64.2969 114.512 64.2969 112.687C64.2969 110.862 65.7942 109.373 67.6527 109.373C69.5113 109.373 71.0086 110.862 71.0086 112.687Z" fill="#282320" stroke="black"/>
<ellipse cx="19.9784" cy="66.2256" rx="3.85586" ry="3.81403" fill="#25221D"/>
<rect width="47.6698" height="4.20175" rx="2.10088" transform="matrix(0.852991 0.521926 -0.530227 0.847856 26.0649 38.1294)" fill="#1D1916"/>
<rect width="33.3538" height="3.94566" rx="1.97283" transform="matrix(0.220811 0.975316 -0.976333 0.216271 70.4541 68.6523)" fill="#191715"/>
<rect width="46.7495" height="2.59336" rx="1.29668" transform="matrix(0.291756 -0.956493 0.958236 0.28598 51.877 113.368)" fill="#E09832"/>
<rect width="9.03329" height="2.37096" rx="1.18548" transform="matrix(0.291756 -0.956493 0.958236 0.28598 67.3027 63.4233)" fill="#E09832"/>
<ellipse cx="67.6524" cy="66.2255" rx="3.15479" ry="3.12057" fill="white"/>
<ellipse cx="67.6522" cy="66.2253" rx="1.0516" ry="1.04019" fill="#E09832"/>
</svg>
