<svg width="154" height="142" viewBox="0 0 154 142" fill="none" xmlns="http://www.w3.org/2000/svg">
<rect y="1.76758" width="142.849" height="140.232" rx="35" fill="#F9F9F6"/>
<path d="M142.849 44.7801H0V18.9531C1.19289 4.66856 12.0283 0.459703 17.2969 0.140844C46.5228 0.0345597 108.374 -0.114238 121.973 0.140844C135.572 0.395925 141.556 12.7886 142.849 18.9531V44.7801Z" fill="#F35049"/>
<path d="M31.9619 40.5371V31.9766H34.2998C34.5459 31.4141 34.7744 30.8457 34.9854 30.2715C35.1963 29.6855 35.3896 29.0293 35.5654 28.3027C35.7529 27.5645 35.9229 26.7207 36.0752 25.7715C36.2393 24.8223 36.3916 23.6973 36.5322 22.3965C36.6963 21.0254 36.8252 19.6777 36.9189 18.3535C37.0127 17.0176 37.083 15.7695 37.1299 14.6094C37.1885 13.4492 37.2236 12.4004 37.2354 11.4629C37.2588 10.5254 37.2764 9.75781 37.2881 9.16016H53.5303V31.9766H56.4482V40.5371H53.2139V35H35.1963V40.5371H31.9619ZM40.5225 12.1836C40.5225 13.8594 40.4521 15.5293 40.3115 17.1934C40.1826 18.8574 40.0244 20.5332 39.8369 22.2207C39.708 23.5566 39.5732 24.6934 39.4326 25.6309C39.3037 26.5566 39.1631 27.3828 39.0107 28.1094C38.8701 28.8242 38.7061 29.4863 38.5186 30.0957C38.3428 30.6934 38.1377 31.3203 37.9033 31.9766H49.9795V12.1836H40.5225ZM59.2256 9.16016H78.0869V12.1836H62.6709V20.1641H76.8916V23.1875H62.6709V31.9766H78.333V35H59.2256V9.16016ZM83.2373 9.16016H86.6826V21.7461L99.2861 9.16016H104.103L93.3447 19.584L104.401 35H99.9717L90.8662 21.9746L86.6826 26V35H83.2373V9.16016ZM107.653 31.168H111.327V35H107.653V31.168Z" fill="white"/>
<path d="M26.4111 78.4199V72.625C31.8701 72.0931 35.6774 71.2113 37.833 69.9795C39.9886 68.7197 41.5983 65.7663 42.6621 61.1191H48.625V121H40.5625V78.4199H26.4111ZM89.4414 86.0625C92.7728 86.0625 95.3763 85.1387 97.252 83.291C99.1276 81.4154 100.065 79.1898 100.065 76.6143C100.065 74.3747 99.1696 72.3171 97.3779 70.4414C95.5863 68.5658 92.8568 67.6279 89.1895 67.6279C85.5501 67.6279 82.9186 68.5658 81.2949 70.4414C79.6712 72.3171 78.8594 74.5146 78.8594 77.0342C78.8594 79.8617 79.9092 82.0732 82.0088 83.6689C84.1084 85.2646 86.5859 86.0625 89.4414 86.0625ZM89.9033 115.835C93.4027 115.835 96.3001 114.897 98.5957 113.021C100.919 111.118 102.081 108.29 102.081 104.539C102.081 100.648 100.891 97.6943 98.5117 95.6787C96.1322 93.6631 93.0807 92.6553 89.3574 92.6553C85.7461 92.6553 82.7926 93.6911 80.4971 95.7627C78.2295 97.8063 77.0957 100.648 77.0957 104.287C77.0957 107.423 78.1315 110.138 80.2031 112.434C82.3027 114.701 85.5361 115.835 89.9033 115.835ZM79.1533 88.96C77.0537 88.0641 75.416 87.0143 74.2402 85.8105C72.0286 83.571 70.9229 80.6595 70.9229 77.0762C70.9229 72.597 72.5465 68.7477 75.7939 65.5283C79.0413 62.3089 83.6465 60.6992 89.6094 60.6992C95.3763 60.6992 99.8975 62.2249 103.173 65.2764C106.448 68.2998 108.086 71.8411 108.086 75.9004C108.086 79.6517 107.134 82.6891 105.23 85.0127C104.167 86.3285 102.515 87.6162 100.275 88.876C102.767 90.0238 104.727 91.3395 106.154 92.8232C108.814 95.6227 110.144 99.262 110.144 103.741C110.144 109.032 108.366 113.525 104.811 117.221C101.255 120.888 96.2301 122.722 89.7354 122.722C83.8844 122.722 78.9294 121.14 74.8701 117.977C70.8389 114.785 68.8232 110.166 68.8232 104.119C68.8232 100.564 69.6911 97.4984 71.4268 94.9229C73.1624 92.3193 75.738 90.3317 79.1533 88.96Z" fill="#383634"/>
</svg>
