<svg width="161" height="114" viewBox="0 0 161 114" fill="none" xmlns="http://www.w3.org/2000/svg">
<rect y="5" width="86" height="83" rx="20" fill="#6F89F5"/>
<path d="M48.9102 41.6055C48.9102 40.1523 48.418 38.8516 47.4336 37.7031C46.4727 36.5312 45.1367 35.9453 43.4258 35.9453C40.7539 35.9453 38.4336 37.5273 36.4648 40.6914C34.5195 43.832 33.5469 46.9609 33.5469 50.0781C33.5469 52.375 34.0508 54.1328 35.0586 55.3516C36.0664 56.5469 37.332 57.1445 38.8555 57.1445C42.0195 57.1445 44.4805 55.3047 46.2383 51.625C48.0195 47.9219 48.9102 44.582 48.9102 41.6055ZM41.9141 74.5117C32.1172 74.5117 24.5703 71.4531 19.2734 65.3359C15.0312 60.4375 12.9102 54.7773 12.9102 48.3555C12.9102 40.7148 15.4883 34.2227 20.6445 28.8789C26.3633 22.9258 34.0391 19.9492 43.6719 19.9492C52.0156 19.9492 58.5781 22.0586 63.3594 26.2773C67.8359 30.2617 70.0742 35.4297 70.0742 41.7812C70.0742 47.125 68.4688 51.6953 65.2578 55.4922C62.0703 59.2656 58.4961 61.1523 54.5352 61.1523C52.2148 61.1523 50.5039 60.6016 49.4023 59.5C48.3008 58.375 47.75 57.0273 47.75 55.457C47.75 55.1992 47.7734 54.9297 47.8203 54.6484C47.8672 54.3672 47.9258 54.0742 47.9961 53.7695C46.7539 56.4648 45.1836 58.375 43.2852 59.5C41.3867 60.6016 39.4297 61.1523 37.4141 61.1523C34.5312 61.1523 32.1875 60.1094 30.3828 58.0234C28.6016 55.9375 27.7109 53.2539 27.7109 49.9727C27.7109 45.3086 29.2344 41.1953 32.2812 37.6328C35.3516 34.0703 38.6445 32.2891 42.1602 32.2891C44.5508 32.2891 46.5195 32.9805 48.0664 34.3633C49.6367 35.7461 50.4688 37.4102 50.5625 39.3555L52.3203 33.4492H57.4883L52.8125 48.8477C52.4609 50.043 52.2031 51.0039 52.0391 51.7305C51.875 52.457 51.793 53.1016 51.793 53.6641C51.793 54.7188 52.1094 55.4922 52.7422 55.9844C53.3984 56.4531 54.1367 56.6875 54.957 56.6875C57.6289 56.6875 60.0195 55.293 62.1289 52.5039C64.2617 49.7148 65.3281 46.0703 65.3281 41.5703C65.3281 36.1328 63.4297 31.8672 59.6328 28.7734C55.8359 25.6562 50.7266 24.0977 44.3047 24.0977C35.3984 24.0977 28.5898 26.6992 23.8789 31.9023C19.8477 36.332 17.832 41.8984 17.832 48.6016C17.832 54.4609 19.7539 59.3828 23.5977 63.3672C28.0977 68.0781 34.5078 70.4336 42.8281 70.4336C46.7188 70.4336 50.3398 69.8242 53.6914 68.6055C57.043 67.3633 60.1133 65.6992 62.9023 63.6133L65.2227 66.7773C63.1133 68.6523 59.9609 70.4102 55.7656 72.0508C51.5703 73.6914 46.9531 74.5117 41.9141 74.5117Z" fill="#FECA6D"/>
</svg>
